<?xml version="1.0" encoding="us-ascii" standalone="no"?><svg xmlns="http://www.w3.org/2000/svg" xmlns:xlink="http://www.w3.org/1999/xlink" contentStyleType="text/css" height="400px" preserveAspectRatio="none" style="width:318px;height:400px;background:#FFFFFF;" version="1.1" viewBox="0 0 318 400" width="318px" zoomAndPan="magnify"><defs/><g><text fill="#000000" font-family="sans-serif" font-size="14" font-weight="bold" lengthAdjust="spacing" textLength="169" x="67.5" y="23.5352">&#23384;&#22312;&#33539;&#22260;&#36716;&#25442;&#20108;&#20041;&#24615;&#30340;NFA</text><rect fill="#F1F1F1" height="40" rx="12.5" ry="12.5" style="stroke:#181818;stroke-width:0.5;" width="50" x="7" y="140.4883"/><text fill="#000000" font-family="sans-serif" font-size="14" lengthAdjust="spacing" textLength="9" x="27.5" y="165.7793">1</text><rect fill="#F1F1F1" height="40" rx="12.5" ry="12.5" style="stroke:#181818;stroke-width:0.5;" width="50" x="92" y="140.4883"/><text fill="#000000" font-family="sans-serif" font-size="14" lengthAdjust="spacing" textLength="9" x="112.5" y="165.7793">2</text><rect fill="#F1F1F1" height="40" rx="12.5" ry="12.5" style="stroke:#181818;stroke-width:0.5;" width="50" x="177" y="140.4883"/><text fill="#000000" font-family="sans-serif" font-size="14" lengthAdjust="spacing" textLength="9" x="197.5" y="165.7793">3</text><rect fill="#F1F1F1" height="40" rx="12.5" ry="12.5" style="stroke:#181818;stroke-width:0.5;" width="50" x="262" y="140.4883"/><text fill="#000000" font-family="sans-serif" font-size="14" lengthAdjust="spacing" textLength="9" x="282.5" y="165.7793">4</text><rect fill="#F1F1F1" height="40" rx="12.5" ry="12.5" style="stroke:#181818;stroke-width:0.5;" width="50" x="139" y="257.4883"/><text fill="#000000" font-family="sans-serif" font-size="14" lengthAdjust="spacing" textLength="9" x="159.5" y="282.7793">5</text><ellipse cx="159" cy="53.4883" fill="#181818" rx="10" ry="10" style="stroke:none;stroke-width:1.0;"/><ellipse cx="164" cy="384.4883" fill="none" rx="10" ry="10" style="stroke:#181818;stroke-width:1.0;"/><ellipse cx="164.5" cy="384.9883" fill="#181818" rx="6" ry="6" style="stroke:none;stroke-width:1.0;"/><!--link *start* to 1--><g id="link_*start*_1"><path d="M150.2498,58.7193 C138.4124,65.9498 116.8411,79.6766 100,93.4883 C83.7181,106.8413 66.8481,123.4435 53.9842,136.7804 " fill="none" id="*start*-to-1" style="stroke:#181818;stroke-width:1.0;"/><polygon fill="#181818" points="50.466,140.4502,59.5818,136.7217,53.9262,136.8409,53.8071,131.1853,50.466,140.4502" style="stroke:#181818;stroke-width:1.0;"/><text fill="#000000" font-family="sans-serif" font-size="13" lengthAdjust="spacing" textLength="8" x="101" y="107.0566">b</text></g><!--link *start* to 2--><g id="link_*start*_2"><path d="M150.8197,59.5048 C141.9634,66.5453 128.2663,79.0894 122,93.4883 C116.3294,106.5183 114.9237,122.3202 115.0077,135.3048 " fill="none" id="*start*-to-2" style="stroke:#181818;stroke-width:1.0;"/><polygon fill="#181818" points="115.1135,140.3137,118.9226,131.2312,115.0079,135.3148,110.9244,131.4001,115.1135,140.3137" style="stroke:#181818;stroke-width:1.0;"/><text fill="#000000" font-family="sans-serif" font-size="13" lengthAdjust="spacing" textLength="32" x="123" y="107.0566">(b-d)</text></g><!--link *start* to 3--><g id="link_*start*_3"><path d="M162.816,62.9838 C169.3019,79.1233 182.677,112.4055 191.9858,135.5692 " fill="none" id="*start*-to-3" style="stroke:#181818;stroke-width:1.0;"/><polygon fill="#181818" points="193.9065,140.3487,194.2621,130.5062,192.0421,135.7093,186.839,133.4893,193.9065,140.3487" style="stroke:#181818;stroke-width:1.0;"/><text fill="#000000" font-family="sans-serif" font-size="13" lengthAdjust="spacing" textLength="31" x="182" y="107.0566">(c-h)</text></g><!--link *start* to 4--><g id="link_*start*_4"><path d="M168.0003,58.3115 C180.6424,65.2794 204.1135,78.9315 222,93.4883 C237.8339,106.3746 253.8236,122.8017 265.9818,136.1649 " fill="none" id="*start*-to-4" style="stroke:#181818;stroke-width:1.0;"/><polygon fill="#181818" points="269.6276,140.2064,266.5692,130.8444,266.2785,136.4938,260.6291,136.2031,269.6276,140.2064" style="stroke:#181818;stroke-width:1.0;"/><text fill="#000000" font-family="sans-serif" font-size="13" lengthAdjust="spacing" textLength="24" x="240" y="107.0566">Any</text></g><!--link 1 to 5--><g id="link_1_5"><path d="M54.6916,180.6013 C77.6415,200.9433 113.0998,232.3722 137.3676,253.8823 " fill="none" id="1-to-5" style="stroke:#181818;stroke-width:1.0;"/><polygon fill="#181818" points="141.1628,257.2462,137.081,248.283,137.4211,253.9296,131.7745,254.2697,141.1628,257.2462" style="stroke:#181818;stroke-width:1.0;"/><text fill="#000000" font-family="sans-serif" font-size="13" lengthAdjust="spacing" textLength="7" x="107" y="224.0566">z</text></g><!--link 2 to 5--><g id="link_2_5"><path d="M125.0796,180.6013 C133.083,200.5247 145.3588,231.0836 153.9789,252.5421 " fill="none" id="2-to-5" style="stroke:#181818;stroke-width:1.0;"/><polygon fill="#181818" points="155.8686,257.2462,156.2254,247.4038,154.0048,252.6066,148.802,250.3859,155.8686,257.2462" style="stroke:#181818;stroke-width:1.0;"/><text fill="#000000" font-family="sans-serif" font-size="13" lengthAdjust="spacing" textLength="7" x="145" y="224.0566">z</text></g><!--link 3 to 5--><g id="link_3_5"><path d="M195.4676,180.6013 C189.0239,200.441 179.155,230.8269 172.1902,252.2712 " fill="none" id="3-to-5" style="stroke:#181818;stroke-width:1.0;"/><polygon fill="#181818" points="170.5744,257.2462,177.1589,249.922,172.1189,252.4907,169.5502,247.4507,170.5744,257.2462" style="stroke:#181818;stroke-width:1.0;"/><text fill="#000000" font-family="sans-serif" font-size="13" lengthAdjust="spacing" textLength="7" x="186" y="224.0566">z</text></g><!--link 4 to 5--><g id="link_4_5"><path d="M265.8555,180.6013 C244.5584,200.8596 211.7015,232.1137 189.0962,253.6163 " fill="none" id="4-to-5" style="stroke:#181818;stroke-width:1.0;"/><polygon fill="#181818" points="185.2802,257.2462,194.5581,253.9415,188.903,253.8001,189.0444,248.145,185.2802,257.2462" style="stroke:#181818;stroke-width:1.0;"/><text fill="#000000" font-family="sans-serif" font-size="13" lengthAdjust="spacing" textLength="7" x="233" y="224.0566">z</text></g><!--link 5 to *end*--><g id="link_5_*end*"><path d="M164,297.6142 C164,318.3521 164,350.2292 164,369.0564 " fill="none" id="5-to-*end*" style="stroke:#181818;stroke-width:1.0;"/><polygon fill="#181818" points="164,374.4536,168,365.4536,164,369.4536,160,365.4536,164,374.4536" style="stroke:#181818;stroke-width:1.0;"/><text fill="#000000" font-family="sans-serif" font-size="13" lengthAdjust="spacing" textLength="24" x="165" y="341.0566">Any</text></g><!--SRC=[AyaioKbLUBfsnjCvArxqD3-TlUN5tZNFUXSzsTNpP6VdiuRbpsUr-BavScLafgGgfEOMb5GgfAGM9nTb5fHavkTn5PSabgGg649f8oXj3ALDeBGfLxHMh6vAVdcUhfsXWfL24XBV2CZNID9DqKGICmQ99Ujc88kP0CKSyogv3A5yKo2_Yii8XMUCmZD1uPb2UK0JeIO10000]--></g></svg>