<?xml version="1.0" encoding="us-ascii" standalone="no"?><svg xmlns="http://www.w3.org/2000/svg" xmlns:xlink="http://www.w3.org/1999/xlink" contentStyleType="text/css" height="453px" preserveAspectRatio="none" style="width:339px;height:453px;background:#FFFFFF;" version="1.1" viewBox="0 0 339 453" width="339px" zoomAndPan="magnify"><defs/><g><text fill="#000000" font-family="sans-serif" font-size="14" font-weight="bold" lengthAdjust="spacing" textLength="188" x="68.7516" y="23.5352">&#28040;&#38500;&#33539;&#22260;&#36716;&#25442;&#20108;&#20041;&#24615;&#21518;&#30340; DFA</text><g id="6"><rect fill="#F1F1F1" height="50.6211" rx="12.5" ry="12.5" style="stroke:#181818;stroke-width:0.5;" width="59" x="152.0031" y="396.4883"/><line style="stroke:#181818;stroke-width:0.5;" x1="152.0031" x2="211.0031" y1="422.9766" y2="422.9766"/><text fill="#000000" font-family="sans-serif" font-size="14" lengthAdjust="spacing" textLength="9" x="177.0031" y="415.0234">6</text><text fill="#000000" font-family="sans-serif" font-size="12" lengthAdjust="spacing" textLength="39" x="157.0031" y="439.5781">Accept</text></g><g id="4"><rect fill="#F1F1F1" height="50.6211" rx="12.5" ry="12.5" style="stroke:#181818;stroke-width:0.5;" width="50" x="23.5031" y="140.4883"/><line style="stroke:#181818;stroke-width:0.5;" x1="23.5031" x2="73.5031" y1="166.9766" y2="166.9766"/><text fill="#000000" font-family="sans-serif" font-size="14" lengthAdjust="spacing" textLength="9" x="44.0031" y="159.0234">4</text><text fill="#000000" font-family="sans-serif" font-size="12" lengthAdjust="spacing" textLength="8" x="28.5031" y="183.5781">4</text></g><g id="5"><rect fill="#F1F1F1" height="50.6211" rx="12.5" ry="12.5" style="stroke:#181818;stroke-width:0.5;" width="50" x="156.5031" y="268.4883"/><line style="stroke:#181818;stroke-width:0.5;" x1="156.5031" x2="206.5031" y1="294.9766" y2="294.9766"/><text fill="#000000" font-family="sans-serif" font-size="14" lengthAdjust="spacing" textLength="9" x="177.0031" y="287.0234">5</text><text fill="#000000" font-family="sans-serif" font-size="12" lengthAdjust="spacing" textLength="8" x="161.5031" y="311.5781">5</text></g><g id="1"><rect fill="#F1F1F1" height="50.6211" rx="12.5" ry="12.5" style="stroke:#181818;stroke-width:0.5;" width="52" x="108.5031" y="140.4883"/><line style="stroke:#181818;stroke-width:0.5;" x1="108.5031" x2="160.5031" y1="166.9766" y2="166.9766"/><text fill="#000000" font-family="sans-serif" font-size="14" lengthAdjust="spacing" textLength="9" x="130.0031" y="159.0234">1</text><text fill="#000000" font-family="sans-serif" font-size="12" lengthAdjust="spacing" textLength="32" x="113.5031" y="183.5781">1,2,4</text></g><g id="3"><rect fill="#F1F1F1" height="50.6211" rx="12.5" ry="12.5" style="stroke:#181818;stroke-width:0.5;" width="50" x="195.5031" y="140.4883"/><line style="stroke:#181818;stroke-width:0.5;" x1="195.5031" x2="245.5031" y1="166.9766" y2="166.9766"/><text fill="#000000" font-family="sans-serif" font-size="14" lengthAdjust="spacing" textLength="9" x="216.0031" y="159.0234">3</text><text fill="#000000" font-family="sans-serif" font-size="12" lengthAdjust="spacing" textLength="20" x="200.5031" y="183.5781">3,4</text></g><g id="2"><rect fill="#F1F1F1" height="50.6211" rx="12.5" ry="12.5" style="stroke:#181818;stroke-width:0.5;" width="52" x="280.5031" y="140.4883"/><line style="stroke:#181818;stroke-width:0.5;" x1="280.5031" x2="332.5031" y1="166.9766" y2="166.9766"/><text fill="#000000" font-family="sans-serif" font-size="14" lengthAdjust="spacing" textLength="9" x="302.0031" y="159.0234">2</text><text fill="#000000" font-family="sans-serif" font-size="12" lengthAdjust="spacing" textLength="32" x="285.5031" y="183.5781">2,3,4</text></g><ellipse cx="170.5031" cy="53.4883" fill="#181818" rx="10" ry="10" style="stroke:none;stroke-width:1.0;"/><!--link *start* to 1--><g id="link_*start*_1"><path d="M167.4338,63.08 C162.3857,78.8552 152.1198,110.9363 144.3844,135.1093 " fill="none" id="*start*-to-1" style="stroke:#181818;stroke-width:1.0;"/><polygon fill="#181818" points="142.7749,140.1388,149.3278,132.7862,144.2989,135.3767,141.7084,130.3478,142.7749,140.1388" style="stroke:#181818;stroke-width:1.0;"/><text fill="#000000" font-family="sans-serif" font-size="13" lengthAdjust="spacing" textLength="8" x="158.5031" y="107.0566">b</text></g><!--link *start* to 2--><g id="link_*start*_2"><path d="M179.5173,57.992 C192.6845,64.7769 217.6581,78.4382 236.5031,93.4883 C252.4987,106.2628 268.4947,122.5042 281.1497,136.3753 " fill="none" id="*start*-to-2" style="stroke:#181818;stroke-width:1.0;"/><polygon fill="#181818" points="284.6277,140.2199,281.5561,130.8623,281.2733,136.5121,275.6235,136.2293,284.6277,140.2199" style="stroke:#181818;stroke-width:1.0;"/><text fill="#000000" font-family="sans-serif" font-size="13" lengthAdjust="spacing" textLength="31" x="255.5031" y="107.0566">(c-d)</text></g><!--link *start* to 3--><g id="link_*start*_3"><path d="M174.5948,62.6946 C181.5918,78.4378 196.1505,111.195 207.0074,135.6229 " fill="none" id="*start*-to-3" style="stroke:#181818;stroke-width:1.0;"/><polygon fill="#181818" points="209.1261,140.39,209.1259,130.5411,207.0953,135.821,201.8155,133.7904,209.1261,140.39" style="stroke:#181818;stroke-width:1.0;"/><text fill="#000000" font-family="sans-serif" font-size="13" lengthAdjust="spacing" textLength="31" x="196.5031" y="107.0566">(e-h)</text></g><!--link *start* to 4--><g id="link_*start*_4"><path d="M160.4515,54.5252 C129.16,57.9798 34.5016,70.2177 16.5031,93.4883 C6.739,106.1126 12.3939,122.182 21.4991,135.9823 " fill="none" id="*start*-to-4" style="stroke:#181818;stroke-width:1.0;"/><polygon fill="#181818" points="24.4224,140.186,22.5679,130.5133,21.5677,136.081,16,135.0808,24.4224,140.186" style="stroke:#181818;stroke-width:1.0;"/><text fill="#000000" font-family="sans-serif" font-size="13" lengthAdjust="spacing" textLength="35" x="17.5031" y="107.0566">(&#8734;-a)</text></g><!--link *start* to 4--><g id="link_*start*_4"><path d="M161.416,58.4818 C149.1642,65.4431 126.9859,78.866 110.5031,93.4883 C96.1316,106.2376 82.0543,122.3187 70.9554,136.0944 " fill="none" id="*start*-to-4-1" style="stroke:#181818;stroke-width:1.0;"/><polygon fill="#181818" points="67.6095,140.2894,76.3485,135.7474,70.7272,136.3804,70.0942,130.7591,67.6095,140.2894" style="stroke:#181818;stroke-width:1.0;"/><text fill="#000000" font-family="sans-serif" font-size="13" lengthAdjust="spacing" textLength="32" x="111.5031" y="107.0566">(i-&#8734;)</text></g><!--link 4 to 5--><g id="link_4_5"><path d="M73.5194,190.0641 C95.9473,211.6489 128.857,243.3214 152.4443,266.0219 " fill="none" id="4-to-5" style="stroke:#181818;stroke-width:1.0;"/><polygon fill="#181818" points="156.1468,269.5852,152.4357,260.4623,152.5441,266.1181,146.8883,266.2265,156.1468,269.5852" style="stroke:#181818;stroke-width:1.0;"/><text fill="#000000" font-family="sans-serif" font-size="13" lengthAdjust="spacing" textLength="7" x="124.5031" y="235.0566">z</text></g><!--link 5 to 6--><g id="link_5_6"><path d="M181.5031,319.5834 C181.5031,340.2511 181.5031,369.3982 181.5031,391.3142 " fill="none" id="5-to-6" style="stroke:#181818;stroke-width:1.0;"/><polygon fill="#181818" points="181.5031,396.4376,185.5031,387.4376,181.5031,391.4376,177.5031,387.4376,181.5031,396.4376" style="stroke:#181818;stroke-width:1.0;"/><text fill="#000000" font-family="sans-serif" font-size="13" lengthAdjust="spacing" textLength="24" x="182.5031" y="363.0566">Any</text></g><!--link 3 to 5--><g id="link_3_5"><path d="M212.7046,191.5834 C206.3808,212.3383 197.4517,241.6443 190.7647,263.5912 " fill="none" id="3-to-5" style="stroke:#181818;stroke-width:1.0;"/><polygon fill="#181818" points="189.2881,268.4376,195.7375,260.9941,190.7454,263.6547,188.0848,258.6625,189.2881,268.4376" style="stroke:#181818;stroke-width:1.0;"/><text fill="#000000" font-family="sans-serif" font-size="13" lengthAdjust="spacing" textLength="7" x="203.5031" y="235.0566">z</text></g><!--link 1 to 5--><g id="link_1_5"><path d="M143.9013,191.5834 C151.5223,212.3383 162.2831,241.6443 170.3417,263.5912 " fill="none" id="1-to-5" style="stroke:#181818;stroke-width:1.0;"/><polygon fill="#181818" points="172.1212,268.4376,172.7739,258.6104,170.3978,263.744,165.2642,261.3679,172.1212,268.4376" style="stroke:#181818;stroke-width:1.0;"/><text fill="#000000" font-family="sans-serif" font-size="13" lengthAdjust="spacing" textLength="7" x="162.5031" y="235.0566">z</text></g><!--link 2 to 5--><g id="link_2_5"><path d="M281.5079,191.5834 C260.8988,212.6871 231.6559,242.6318 210.1133,264.6915 " fill="none" id="2-to-5" style="stroke:#181818;stroke-width:1.0;"/><polygon fill="#181818" points="206.455,268.4376,215.6048,264.7931,209.9483,264.8603,209.8811,259.2038,206.455,268.4376" style="stroke:#181818;stroke-width:1.0;"/><text fill="#000000" font-family="sans-serif" font-size="13" lengthAdjust="spacing" textLength="7" x="251.5031" y="235.0566">z</text></g><!--SRC=[AyaioKbLUBQju-NC9Izwcf_Etl9YxvfdlOkUxEfvihFpMSFofnFwdizgKN1nS-JAo4n9LKZDBIYfL4X9BKukoYmeoSpFuoekIIn9LJ2pKd1CJaujA87oJQmKJA1CKoi5KoZJq4h1KCT81oPZRALW3ESOMIaOwO2uqLgnkYdvvNcwTWg62bOAIGh88aP04OratHHD555Za6YgRWQgg0b8z577FDr4BEAPka0PeBW9JDGKA5gbm6KAuvi1-OvvbGfSncWg3D7uHgXy0000]--></g></svg>