<?xml version="1.0" encoding="us-ascii" standalone="no"?><svg xmlns="http://www.w3.org/2000/svg" xmlns:xlink="http://www.w3.org/1999/xlink" contentStyleType="text/css" height="109px" preserveAspectRatio="none" style="width:452px;height:109px;background:#FFFFFF;" version="1.1" viewBox="0 0 452 109" width="452px" zoomAndPan="magnify"><defs/><g><ellipse cx="16" cy="78.7422" fill="#181818" rx="10" ry="10" style="stroke:none;stroke-width:1.0;"/><g id="1"><rect fill="#F1F1F1" height="50.6211" rx="12.5" ry="12.5" style="stroke:#181818;stroke-width:0.5;" width="50" x="70" y="53.2422"/><line style="stroke:#181818;stroke-width:0.5;" x1="70" x2="120" y1="79.7305" y2="79.7305"/><text fill="#000000" font-family="sans-serif" font-size="14" lengthAdjust="spacing" textLength="9" x="90.5" y="71.7773">1</text><text fill="#000000" font-family="sans-serif" font-size="12" lengthAdjust="spacing" textLength="13" x="75" y="96.332">a*</text></g><g id="2"><rect fill="#F1F1F1" height="50.6211" rx="12.5" ry="12.5" style="stroke:#181818;stroke-width:0.5;" width="50" x="201" y="53.2422"/><line style="stroke:#181818;stroke-width:0.5;" x1="201" x2="251" y1="79.7305" y2="79.7305"/><text fill="#000000" font-family="sans-serif" font-size="14" lengthAdjust="spacing" textLength="9" x="221.5" y="71.7773">2</text><text fill="#000000" font-family="sans-serif" font-size="12" lengthAdjust="spacing" textLength="7" x="206" y="96.332">a</text></g><g id="3"><rect fill="#F1F1F1" height="50.6211" rx="12.5" ry="12.5" style="stroke:#181818;stroke-width:0.5;" width="50" x="296" y="53.2422"/><line style="stroke:#181818;stroke-width:0.5;" x1="296" x2="346" y1="79.7305" y2="79.7305"/><text fill="#000000" font-family="sans-serif" font-size="14" lengthAdjust="spacing" textLength="9" x="316.5" y="71.7773">3</text><text fill="#000000" font-family="sans-serif" font-size="12" lengthAdjust="spacing" textLength="8" x="301" y="96.332">b</text></g><ellipse cx="436" cy="78.7422" fill="none" rx="10" ry="10" style="stroke:#181818;stroke-width:1.0;"/><ellipse cx="436.5" cy="79.2422" fill="#181818" rx="6" ry="6" style="stroke:none;stroke-width:1.0;"/><!--link *start* to 1--><g id="link_*start*_1"><path d="M26.0054,78.7422 C35.682,78.7422 50.8452,78.7422 64.4949,78.7422 " fill="none" id="*start*-to-1" style="stroke:#181818;stroke-width:1.0;"/><polygon fill="#181818" points="69.8343,78.7422,60.8343,74.7422,64.8343,78.7422,60.8343,82.7422,69.8343,78.7422" style="stroke:#181818;stroke-width:1.0;"/><text fill="#000000" font-family="sans-serif" font-size="13" lengthAdjust="spacing" textLength="7" x="44.5" y="72.3105">a</text></g><!--link *start* to 2--><g id="link_*start*_2"><path d="M23.3086,71.4113 C37.9268,57.3407 72.4694,26.9901 108.5,16.2422 C141.1518,6.5022 175.1759,28.7233 198.1563,49.3151 " fill="none" id="*start*-to-2" style="stroke:#181818;stroke-width:1.0;"/><polygon fill="#181818" points="202.0314,52.866,198.0985,43.8365,198.3451,49.488,192.6936,49.7346,202.0314,52.866" style="stroke:#181818;stroke-width:1.0;"/><text fill="#000000" font-family="sans-serif" font-size="13" lengthAdjust="spacing" textLength="7" x="109.5" y="19.8105">a</text></g><!--link 1 to 1--><g id="link_1_1"><path d="M120.2777,70.2827 C137.7734,67.7193 155,70.5391 155,78.7422 C155,86.1122 141.0949,89.1368 125.5823,87.8161 " fill="none" id="1-to-1" style="stroke:#181818;stroke-width:1.0;"/><polygon fill="#181818" points="120.2777,87.2017,128.7576,92.2109,125.2445,87.7771,129.6782,84.264,120.2777,87.2017" style="stroke:#181818;stroke-width:1.0;"/><text fill="#000000" font-family="sans-serif" font-size="13" lengthAdjust="spacing" textLength="7" x="161" y="83.8105">a</text></g><!--link 1 to 2--><g id="link_1_2"><path d="M120.2581,78.7422 C141.8242,78.7422 172.893,78.7422 195.7757,78.7422 " fill="none" id="1-to-2" style="stroke:#181818;stroke-width:1.0;"/><polygon fill="#181818" points="200.8194,78.7422,191.8194,74.7422,195.8194,78.7422,191.8194,82.7422,200.8194,78.7422" style="stroke:#181818;stroke-width:1.0;"/><text fill="#000000" font-family="sans-serif" font-size="13" lengthAdjust="spacing" textLength="7" x="157" y="72.3105">a</text></g><!--link 2 to 3--><g id="link_2_3"><path d="M251.4583,78.7422 C263.481,78.7422 277.9245,78.7422 290.5256,78.7422 " fill="none" id="2-to-3" style="stroke:#181818;stroke-width:1.0;"/><polygon fill="#181818" points="295.8009,78.7422,286.8009,74.7422,290.8009,78.7422,286.8009,82.7422,295.8009,78.7422" style="stroke:#181818;stroke-width:1.0;"/><text fill="#000000" font-family="sans-serif" font-size="13" lengthAdjust="spacing" textLength="8" x="269.5" y="72.3105">b</text></g><!--link 3 to *end*--><g id="link_3_*end*"><path d="M346.2372,78.7422 C368.8866,78.7422 401.4105,78.7422 420.4564,78.7422 " fill="none" id="3-to-*end*" style="stroke:#181818;stroke-width:1.0;"/><polygon fill="#181818" points="425.9087,78.7422,416.9087,74.7422,420.9087,78.7422,416.9087,82.7422,425.9087,78.7422" style="stroke:#181818;stroke-width:1.0;"/><text fill="#000000" font-family="sans-serif" font-size="13" lengthAdjust="spacing" textLength="43" x="364.5" y="72.3105">Accept</text></g><!--SRC=[YzQArRKpLB1IIEGABaaiILKmv384ShIWF2Ck8v0KLpH8cH5O6PSXJ8CXN0YYs9ZBs2g9oqZNpXWeciJ5PQnh1zG7P3ic9wSMb000]--></g></svg>