<?xml version="1.0" encoding="us-ascii" standalone="no"?><svg xmlns="http://www.w3.org/2000/svg" xmlns:xlink="http://www.w3.org/1999/xlink" contentStyleType="text/css" height="500px" preserveAspectRatio="none" style="width:240px;height:500px;background:#FFFFFF;" version="1.1" viewBox="0 0 240 500" width="240px" zoomAndPan="magnify"><defs/><g><ellipse cx="66.9149" cy="16" fill="#181818" rx="10" ry="10" style="stroke:none;stroke-width:1.0;"/><rect fill="#F1F1F1" height="40" rx="12.5" ry="12.5" style="stroke:#181818;stroke-width:0.5;" width="50" x="34.9149" y="337"/><text fill="#000000" font-family="sans-serif" font-size="14" lengthAdjust="spacing" textLength="9" x="55.4149" y="362.291">3</text><rect fill="#F1F1F1" height="40" rx="12.5" ry="12.5" style="stroke:#181818;stroke-width:0.5;" width="50" x="41.9149" y="103"/><text fill="#000000" font-family="sans-serif" font-size="14" lengthAdjust="spacing" textLength="9" x="62.4149" y="128.291">2</text><rect fill="#F1F1F1" height="40" rx="12.5" ry="12.5" style="stroke:#181818;stroke-width:0.5;" width="50" x="129.9149" y="220"/><text fill="#000000" font-family="sans-serif" font-size="14" lengthAdjust="spacing" textLength="9" x="150.4149" y="245.291">1</text><rect fill="#F1F1F1" height="40" rx="12.5" ry="12.5" style="stroke:#181818;stroke-width:0.5;" width="50" x="34.9149" y="454"/><text fill="#000000" font-family="sans-serif" font-size="14" lengthAdjust="spacing" textLength="9" x="55.4149" y="479.291">4</text><!--link *start* to 3--><g id="link_*start*_3"><path d="M61.0874,24.648 C51.3011,39.7509 31.9461,72.2623 24.9149,103 C6,185.6884 34.6368,286.0116 50.5142,331.9007 " fill="none" id="*start*-to-3" style="stroke:#181818;stroke-width:1.0;"/><polygon fill="#181818" points="52.1961,336.6966,52.9922,326.88,50.5414,331.9783,45.443,329.5275,52.1961,336.6966" style="stroke:#181818;stroke-width:1.0;"/><text fill="#000000" font-family="sans-serif" font-size="13" lengthAdjust="spacing" textLength="7" x="19.9149" y="186.5684">a</text></g><!--link *start* to 2--><g id="link_*start*_2"><path d="M66.9149,26.2596 C66.9149,42.5304 66.9149,74.7386 66.9149,97.5131 " fill="none" id="*start*-to-2" style="stroke:#181818;stroke-width:1.0;"/><polygon fill="#181818" points="66.9149,102.7955,70.9149,93.7955,66.9149,97.7955,62.9149,93.7955,66.9149,102.7955" style="stroke:#181818;stroke-width:1.0;"/><text fill="#000000" font-family="sans-serif" font-size="13" lengthAdjust="spacing" textLength="8" x="67.9149" y="69.5684">b</text></g><!--link *start* to 1--><g id="link_*start*_1"><path d="M75.1281,21.8494 C92.1068,34.4606 130.9025,66.0756 147.9149,103 C164.5209,139.0424 162.4751,186.2071 159.0228,214.7454 " fill="none" id="*start*-to-1" style="stroke:#181818;stroke-width:1.0;"/><polygon fill="#181818" points="158.366,219.8504,163.4817,211.4344,159.004,214.8913,155.5471,210.4136,158.366,219.8504" style="stroke:#181818;stroke-width:1.0;"/><text fill="#000000" font-family="sans-serif" font-size="13" lengthAdjust="spacing" textLength="7" x="159.9149" y="128.0684">a</text></g><!--link 1 to 1--><g id="link_1_1"><path d="M180.1926,230.187 C197.6884,227.2134 214.9149,230.4844 214.9149,240 C214.9149,248.5492 201.0098,252.0578 185.4973,250.5258 " fill="none" id="1-to-1" style="stroke:#181818;stroke-width:1.0;"/><polygon fill="#181818" points="180.1926,249.813,188.5796,254.9761,185.148,250.479,189.6452,247.0474,180.1926,249.813" style="stroke:#181818;stroke-width:1.0;"/><text fill="#000000" font-family="sans-serif" font-size="13" lengthAdjust="spacing" textLength="7" x="220.9149" y="245.0684">a</text></g><!--link 1 to 2--><g id="link_1_2"><path d="M149.7109,219.9126 C145.4105,205.8605 138.3101,187.1492 127.9149,173 C119.2501,161.2061 107.1884,150.5452 96.0763,142.1267 " fill="none" id="1-to-2" style="stroke:#181818;stroke-width:1.0;"/><polygon fill="#181818" points="92.0333,139.1287,96.8799,147.7025,96.0495,142.1069,101.6451,141.2766,92.0333,139.1287" style="stroke:#181818;stroke-width:1.0;"/><text fill="#000000" font-family="sans-serif" font-size="13" lengthAdjust="spacing" textLength="8" x="138.9149" y="186.5684">b</text></g><!--link 2 to 1--><g id="link_2_1"><path d="M82.0427,143.113 C97.1537,163.2038 120.3991,194.1096 136.5574,215.5929 " fill="none" id="2-to-1" style="stroke:#181818;stroke-width:1.0;"/><polygon fill="#181818" points="139.6901,219.7579,137.4772,210.1609,136.6847,215.7619,131.0836,214.9695,139.6901,219.7579" style="stroke:#181818;stroke-width:1.0;"/><text fill="#000000" font-family="sans-serif" font-size="13" lengthAdjust="spacing" textLength="7" x="116.9149" y="186.5684">a</text></g><!--link 1 to 3--><g id="link_1_3"><path d="M138.5838,260.113 C122.2028,280.2875 96.9671,311.3673 79.515,332.8609 " fill="none" id="1-to-3" style="stroke:#181818;stroke-width:1.0;"/><polygon fill="#181818" points="76.3508,336.7579,85.1292,332.2924,79.5025,332.8763,78.9186,327.2497,76.3508,336.7579" style="stroke:#181818;stroke-width:1.0;"/><text fill="#000000" font-family="sans-serif" font-size="13" lengthAdjust="spacing" textLength="7" x="113.9149" y="303.5684">a</text></g><!--link 2 to 2--><g id="link_2_2"><path d="M92.1926,113.187 C109.6884,110.2134 126.9149,113.4844 126.9149,123 C126.9149,131.5492 113.0098,135.0578 97.4973,133.5258 " fill="none" id="2-to-2" style="stroke:#181818;stroke-width:1.0;"/><polygon fill="#181818" points="92.1926,132.813,100.5796,137.9761,97.148,133.479,101.6452,130.0474,92.1926,132.813" style="stroke:#181818;stroke-width:1.0;"/><text fill="#000000" font-family="sans-serif" font-size="13" lengthAdjust="spacing" textLength="8" x="132.9149" y="128.0684">b</text></g><!--link 2 to 3--><g id="link_2_3"><path d="M66.306,143.3566 C65.028,186.0762 62.0694,284.9796 60.6719,331.6947 " fill="none" id="2-to-3" style="stroke:#181818;stroke-width:1.0;"/><polygon fill="#181818" points="60.5175,336.8571,64.7852,327.9809,60.6672,331.8593,56.7888,327.7414,60.5175,336.8571" style="stroke:#181818;stroke-width:1.0;"/><text fill="#000000" font-family="sans-serif" font-size="13" lengthAdjust="spacing" textLength="7" x="64.9149" y="245.0684">a</text></g><!--link 3 to 4--><g id="link_3_4"><path d="M59.9149,377.113 C59.9149,396.869 59.9149,427.0824 59.9149,448.5109 " fill="none" id="3-to-4" style="stroke:#181818;stroke-width:1.0;"/><polygon fill="#181818" points="59.9149,453.7579,63.9149,444.7579,59.9149,448.7579,55.9149,444.7579,59.9149,453.7579" style="stroke:#181818;stroke-width:1.0;"/><text fill="#000000" font-family="sans-serif" font-size="13" lengthAdjust="spacing" textLength="8" x="60.9149" y="420.5684">b</text></g><!--SRC=[oyXCILL8pIqegLH8IIrEBieiACdCp-EArehLJSalpzErCrQmKaX4uXi1-Kb8V4Eml25M7aIj8Of9HYWgZL1K6g6eD8RoJ41o0000]--></g></svg>