<?xml version="1.0" encoding="us-ascii" standalone="no"?><svg xmlns="http://www.w3.org/2000/svg" xmlns:xlink="http://www.w3.org/1999/xlink" contentStyleType="text/css" height="767px" preserveAspectRatio="none" style="width:541px;height:767px;background:#FFFFFF;" version="1.1" viewBox="0 0 541 767" width="541px" zoomAndPan="magnify"><defs/><g><text fill="#000000" font-family="sans-serif" font-size="14" font-weight="bold" lengthAdjust="spacing" textLength="127" x="200" y="23.5352">AST of (a|b)*abb$</text><g id="0"><rect fill="#F1F1F1" height="50.6211" rx="12.5" ry="12.5" style="stroke:#181818;stroke-width:0.5;" width="108" x="386" y="44.4883"/><line style="stroke:#181818;stroke-width:0.5;" x1="386" x2="494" y1="70.9766" y2="70.9766"/><text fill="#000000" font-family="sans-serif" font-size="14" lengthAdjust="spacing" textLength="58" x="411" y="63.0234">RegExpr</text><text fill="#000000" font-family="sans-serif" font-size="12" lengthAdjust="spacing" textLength="88" x="391" y="87.5781">(((((a|b)*)a)b)b)</text></g><g id="1"><rect fill="#F1F1F1" height="50.6211" rx="12.5" ry="12.5" style="stroke:#181818;stroke-width:0.5;" width="108" x="325" y="155.4883"/><line style="stroke:#181818;stroke-width:0.5;" x1="325" x2="433" y1="181.9766" y2="181.9766"/><text fill="#000000" font-family="sans-serif" font-size="14" lengthAdjust="spacing" textLength="60" x="349" y="174.0234">AndExpr</text><text fill="#000000" font-family="sans-serif" font-size="12" lengthAdjust="spacing" textLength="88" x="330" y="198.5781">(((((a|b)*)a)b)b)</text></g><g id="2"><rect fill="#F1F1F1" height="50.6211" rx="12.5" ry="12.5" style="stroke:#181818;stroke-width:0.5;" width="92" x="259" y="266.4883"/><line style="stroke:#181818;stroke-width:0.5;" x1="259" x2="351" y1="292.9766" y2="292.9766"/><text fill="#000000" font-family="sans-serif" font-size="14" lengthAdjust="spacing" textLength="60" x="275" y="285.0234">AndExpr</text><text fill="#000000" font-family="sans-serif" font-size="12" lengthAdjust="spacing" textLength="72" x="264" y="309.5781">((((a|b)*)a)b)</text></g><g id="3"><rect fill="#F1F1F1" height="50.6211" rx="12.5" ry="12.5" style="stroke:#181818;stroke-width:0.5;" width="80" x="194" y="377.4883"/><line style="stroke:#181818;stroke-width:0.5;" x1="194" x2="274" y1="403.9766" y2="403.9766"/><text fill="#000000" font-family="sans-serif" font-size="14" lengthAdjust="spacing" textLength="60" x="204" y="396.0234">AndExpr</text><text fill="#000000" font-family="sans-serif" font-size="12" lengthAdjust="spacing" textLength="56" x="199" y="420.5781">(((a|b)*)a)</text></g><g id="4"><rect fill="#F1F1F1" height="50.6211" rx="12.5" ry="12.5" style="stroke:#181818;stroke-width:0.5;" width="92" x="114" y="488.4883"/><line style="stroke:#181818;stroke-width:0.5;" x1="114" x2="206" y1="514.9766" y2="514.9766"/><text fill="#000000" font-family="sans-serif" font-size="14" lengthAdjust="spacing" textLength="72" x="124" y="507.0234">UnaryExpr</text><text fill="#000000" font-family="sans-serif" font-size="12" lengthAdjust="spacing" textLength="41" x="119" y="531.5781">((a|b)*)</text></g><g id="5"><rect fill="#F1F1F1" height="50.6211" rx="12.5" ry="12.5" style="stroke:#181818;stroke-width:0.5;" width="69" x="125.5" y="599.4883"/><line style="stroke:#181818;stroke-width:0.5;" x1="125.5" x2="194.5" y1="625.9766" y2="625.9766"/><text fill="#000000" font-family="sans-serif" font-size="14" lengthAdjust="spacing" textLength="49" x="135.5" y="618.0234">OrExpr</text><text fill="#000000" font-family="sans-serif" font-size="12" lengthAdjust="spacing" textLength="27" x="130.5" y="642.5781">(a|b)</text></g><g id="6"><rect fill="#F1F1F1" height="50.6211" rx="12.5" ry="12.5" style="stroke:#181818;stroke-width:0.5;" width="136" x="7" y="710.4883"/><line style="stroke:#181818;stroke-width:0.5;" x1="7" x2="143" y1="736.9766" y2="736.9766"/><text fill="#FF0000" font-family="sans-serif" font-size="14" lengthAdjust="spacing" textLength="116" x="17" y="729.0234">&lt;1&gt;SingleToken</text><text fill="#000000" font-family="sans-serif" font-size="12" lengthAdjust="spacing" textLength="7" x="12" y="753.5781">a</text></g><g id="7"><rect fill="#F1F1F1" height="50.6211" rx="12.5" ry="12.5" style="stroke:#181818;stroke-width:0.5;" width="136" x="178" y="710.4883"/><line style="stroke:#181818;stroke-width:0.5;" x1="178" x2="314" y1="736.9766" y2="736.9766"/><text fill="#FF0000" font-family="sans-serif" font-size="14" lengthAdjust="spacing" textLength="116" x="188" y="729.0234">&lt;2&gt;SingleToken</text><text fill="#000000" font-family="sans-serif" font-size="12" lengthAdjust="spacing" textLength="8" x="183" y="753.5781">b</text></g><g id="8"><rect fill="#F1F1F1" height="50.6211" rx="12.5" ry="12.5" style="stroke:#181818;stroke-width:0.5;" width="136" x="241" y="488.4883"/><line style="stroke:#181818;stroke-width:0.5;" x1="241" x2="377" y1="514.9766" y2="514.9766"/><text fill="#FF0000" font-family="sans-serif" font-size="14" lengthAdjust="spacing" textLength="116" x="251" y="507.0234">&lt;3&gt;SingleToken</text><text fill="#000000" font-family="sans-serif" font-size="12" lengthAdjust="spacing" textLength="7" x="246" y="531.5781">a</text></g><g id="9"><rect fill="#F1F1F1" height="50.6211" rx="12.5" ry="12.5" style="stroke:#181818;stroke-width:0.5;" width="136" x="309" y="377.4883"/><line style="stroke:#181818;stroke-width:0.5;" x1="309" x2="445" y1="403.9766" y2="403.9766"/><text fill="#FF0000" font-family="sans-serif" font-size="14" lengthAdjust="spacing" textLength="116" x="319" y="396.0234">&lt;4&gt;SingleToken</text><text fill="#000000" font-family="sans-serif" font-size="12" lengthAdjust="spacing" textLength="8" x="314" y="420.5781">b</text></g><g id="10"><rect fill="#F1F1F1" height="50.6211" rx="12.5" ry="12.5" style="stroke:#181818;stroke-width:0.5;" width="136" x="386" y="266.4883"/><line style="stroke:#181818;stroke-width:0.5;" x1="386" x2="522" y1="292.9766" y2="292.9766"/><text fill="#FF0000" font-family="sans-serif" font-size="14" lengthAdjust="spacing" textLength="116" x="396" y="285.0234">&lt;5&gt;SingleToken</text><text fill="#000000" font-family="sans-serif" font-size="12" lengthAdjust="spacing" textLength="8" x="391" y="309.5781">b</text></g><g id="11"><rect fill="#F1F1F1" height="50.6211" rx="12.5" ry="12.5" style="stroke:#181818;stroke-width:0.5;" width="66" x="468" y="155.4883"/><line style="stroke:#181818;stroke-width:0.5;" x1="468" x2="534" y1="181.9766" y2="181.9766"/><text fill="#000000" font-family="sans-serif" font-size="14" lengthAdjust="spacing" textLength="46" x="478" y="174.0234">Accept</text><text fill="#000000" font-family="sans-serif" font-size="12" lengthAdjust="spacing" textLength="4" x="473" y="198.5781">&#160;</text></g><!--link 5 to 6--><g id="link_5_6"><path d="M140.2856,650.7329 C127.6265,667.2643 111.1381,688.7962 97.899,706.0849 " fill="none" id="5-to-6" style="stroke:#181818;stroke-width:1.0;"/><polygon fill="#181818" points="94.6074,710.3833,103.2551,705.6698,97.6474,706.4136,96.9036,700.8058,94.6074,710.3833" style="stroke:#181818;stroke-width:1.0;"/></g><!--link 5 to 7--><g id="link_5_7"><path d="M179.9463,650.7329 C192.7544,667.2643 209.4368,688.7962 222.8316,706.0849 " fill="none" id="5-to-7" style="stroke:#181818;stroke-width:1.0;"/><polygon fill="#181818" points="226.1619,710.3833,223.8115,700.819,223.0995,706.4309,217.4876,705.7189,226.1619,710.3833" style="stroke:#181818;stroke-width:1.0;"/></g><!--link 4 to 5--><g id="link_4_5"><path d="M160,539.7329 C160,555.9841 160,577.0678 160,594.2022 " fill="none" id="4-to-5" style="stroke:#181818;stroke-width:1.0;"/><polygon fill="#181818" points="160,599.3833,164,590.3833,160,594.3833,156,590.3833,160,599.3833" style="stroke:#181818;stroke-width:1.0;"/></g><!--link 3 to 4--><g id="link_3_4"><path d="M216.8369,428.7329 C205.816,445.2643 191.4614,466.7962 179.9356,484.0849 " fill="none" id="3-to-4" style="stroke:#181818;stroke-width:1.0;"/><polygon fill="#181818" points="177.07,488.3833,185.3906,483.1138,179.8436,484.2231,178.7343,478.6761,177.07,488.3833" style="stroke:#181818;stroke-width:1.0;"/></g><!--link 3 to 8--><g id="link_3_8"><path d="M251.395,428.7329 C262.5649,445.2643 277.1135,466.7962 288.795,484.0849 " fill="none" id="3-to-8" style="stroke:#181818;stroke-width:1.0;"/><polygon fill="#181818" points="291.6993,488.3833,289.975,478.6865,288.9,484.2403,283.3463,483.1654,291.6993,488.3833" style="stroke:#181818;stroke-width:1.0;"/></g><!--link 2 to 3--><g id="link_2_3"><path d="M288.5327,317.7329 C277.9586,334.2643 264.1859,355.7962 253.1274,373.0849 " fill="none" id="2-to-3" style="stroke:#181818;stroke-width:1.0;"/><polygon fill="#181818" points="250.378,377.3833,258.5973,371.9571,253.0723,373.1713,251.8581,367.6463,250.378,377.3833" style="stroke:#181818;stroke-width:1.0;"/></g><!--link 2 to 9--><g id="link_2_9"><path d="M321.6992,317.7329 C332.4223,334.2643 346.3889,355.7962 357.6032,373.0849 " fill="none" id="2-to-9" style="stroke:#181818;stroke-width:1.0;"/><polygon fill="#181818" points="360.3913,377.3833,358.8493,367.6559,357.6703,373.1885,352.1376,372.0095,360.3913,377.3833" style="stroke:#181818;stroke-width:1.0;"/></g><!--link 1 to 2--><g id="link_1_2"><path d="M361.8369,206.7329 C350.816,223.2643 336.4614,244.7962 324.9356,262.0849 " fill="none" id="1-to-2" style="stroke:#181818;stroke-width:1.0;"/><polygon fill="#181818" points="322.07,266.3833,330.3906,261.1138,324.8436,262.2231,323.7343,256.6761,322.07,266.3833" style="stroke:#181818;stroke-width:1.0;"/></g><!--link 1 to 10--><g id="link_1_10"><path d="M396.395,206.7329 C407.5649,223.2643 422.1135,244.7962 433.795,262.0849 " fill="none" id="1-to-10" style="stroke:#181818;stroke-width:1.0;"/><polygon fill="#181818" points="436.6993,266.3833,434.975,256.6865,433.9,262.2403,428.3463,261.1654,436.6993,266.3833" style="stroke:#181818;stroke-width:1.0;"/></g><!--link 0 to 1--><g id="link_0_1"><path d="M425.8521,95.7329 C416.8442,112.1242 405.1347,133.4316 395.6754,150.6445 " fill="none" id="0-to-1" style="stroke:#181818;stroke-width:1.0;"/><polygon fill="#181818" points="393.0712,155.3833,400.9114,149.4224,395.4794,151.0014,393.9004,145.5694,393.0712,155.3833" style="stroke:#181818;stroke-width:1.0;"/></g><!--link 0 to 11--><g id="link_0_11"><path d="M454.1479,95.7329 C463.1558,112.1242 474.8653,133.4316 484.3246,150.6445 " fill="none" id="0-to-11" style="stroke:#181818;stroke-width:1.0;"/><polygon fill="#181818" points="486.9288,155.3833,486.0996,145.5694,484.5206,151.0014,479.0886,149.4224,486.9288,155.3833" style="stroke:#181818;stroke-width:1.0;"/></g><!--SRC=[TT7TQeCm5C3n-pp5mUsY3Wh663z2AVHYruErUu2efvsiYwA1jR27dqrETRqmkVd3-H48vxEf4V2xirUeSQZwfhDDQvXjx1bXjpz0UuIL_Yt35rsMpsomsY94e0S8tl7qUkdwW4KALhVZMAZ3ShmakPCxKtl9bsNyA6ClPqXCF3BXs5sHIPpvCBg_UfNSb4T4f2DllPzBvVz8mzGDDtoxRypfZ8Vs2qq0JnOlLlLO0qiLQ22SUHmluan1IJRtLYpQV7oORE5jicYB-Ltk5xAHYvX7_pGjfQgmi-DEk69oNRS_PhrDfyfOGYMPe4gcobbC9QOg6AUAf-8HY-uv5_y3]--></g></svg>