<?xml version="1.0" encoding="us-ascii" standalone="no"?><svg xmlns="http://www.w3.org/2000/svg" xmlns:xlink="http://www.w3.org/1999/xlink" contentStyleType="text/css" height="149px" preserveAspectRatio="none" style="width:233px;height:149px;background:#FFFFFF;" version="1.1" viewBox="0 0 233 149" width="233px" zoomAndPan="magnify"><defs/><g><ellipse cx="117" cy="16" fill="#181818" rx="10" ry="10" style="stroke:none;stroke-width:1.0;"/><rect fill="#F1F1F1" height="40" rx="12.5" ry="12.5" style="stroke:#181818;stroke-width:0.5;" width="50" x="7" y="103"/><text fill="#000000" font-family="sans-serif" font-size="14" lengthAdjust="spacing" textLength="9" x="27.5" y="128.291">3</text><rect fill="#F1F1F1" height="40" rx="12.5" ry="12.5" style="stroke:#181818;stroke-width:0.5;" width="50" x="92" y="103"/><text fill="#000000" font-family="sans-serif" font-size="14" lengthAdjust="spacing" textLength="9" x="112.5" y="128.291">2</text><rect fill="#F1F1F1" height="40" rx="12.5" ry="12.5" style="stroke:#181818;stroke-width:0.5;" width="50" x="177" y="103"/><text fill="#000000" font-family="sans-serif" font-size="14" lengthAdjust="spacing" textLength="9" x="197.5" y="128.291">1</text><!--link *start* to 3--><g id="link_*start*_3"><path d="M110.6112,24.0424 C98.2021,39.6633 70.3945,74.6681 51.4112,98.5647 " fill="none" id="*start*-to-3" style="stroke:#181818;stroke-width:1.0;"/><polygon fill="#181818" points="48.2099,102.5946,56.94,98.0355,51.3199,98.6795,50.6759,93.0595,48.2099,102.5946" style="stroke:#181818;stroke-width:1.0;"/><text fill="#000000" font-family="sans-serif" font-size="13" lengthAdjust="spacing" textLength="7" x="86" y="69.5684">a</text></g><!--link *start* to 2--><g id="link_*start*_2"><path d="M117,26.2596 C117,42.5304 117,74.7386 117,97.5131 " fill="none" id="*start*-to-2" style="stroke:#181818;stroke-width:1.0;"/><polygon fill="#181818" points="117,102.7955,121,93.7955,117,97.7955,113,93.7955,117,102.7955" style="stroke:#181818;stroke-width:1.0;"/><text fill="#000000" font-family="sans-serif" font-size="13" lengthAdjust="spacing" textLength="8" x="118" y="69.5684">b</text></g><!--link *start* to 1--><g id="link_*start*_1"><path d="M123.3888,24.0424 C135.7979,39.6633 163.6055,74.6681 182.5888,98.5647 " fill="none" id="*start*-to-1" style="stroke:#181818;stroke-width:1.0;"/><polygon fill="#181818" points="185.7901,102.5946,183.3241,93.0595,182.6801,98.6795,177.06,98.0355,185.7901,102.5946" style="stroke:#181818;stroke-width:1.0;"/><text fill="#000000" font-family="sans-serif" font-size="13" lengthAdjust="spacing" textLength="7" x="163" y="69.5684">a</text></g><!--SRC=[oyXCILL8pIqegLH8IIrEBieiACdCp-EArehLJSalpzErCrQmKaX4uXi1-Kb8V4EGF000]--></g></svg>