<?xml version="1.0" encoding="us-ascii" standalone="no"?><svg xmlns="http://www.w3.org/2000/svg" xmlns:xlink="http://www.w3.org/1999/xlink" contentStyleType="text/css" height="355px" preserveAspectRatio="none" style="width:799px;height:355px;background:#FFFFFF;" version="1.1" viewBox="0 0 799 355" width="799px" zoomAndPan="magnify"><defs/><g><text fill="#000000" font-family="sans-serif" font-size="14" font-weight="bold" lengthAdjust="spacing" textLength="168" x="308.5" y="23.5352">&#22522;&#20110;&#35299;&#37322;&#22120;&#27169;&#24335;&#30340;&#35821;&#20041;&#20998;&#26512;</text><!--class AST--><g id="elem_AST"><rect codeLine="64" fill="#F1F1F1" height="113.9531" id="AST" rx="2.5" ry="2.5" style="stroke:#181818;stroke-width:0.5;" width="170" x="314" y="44.4883"/><ellipse cx="381.25" cy="60.4883" fill="#B4A7E5" rx="11" ry="11" style="stroke:#181818;stroke-width:1.0;"/><path d="M377.6777,56.7534 L377.6777,54.5952 L385.0571,54.5952 L385.0571,56.7534 L382.5918,56.7534 L382.5918,64.8301 L385.0571,64.8301 L385.0571,66.9883 L377.6777,66.9883 L377.6777,64.8301 L380.1431,64.8301 L380.1431,56.7534 Z " fill="#000000"/><text fill="#000000" font-family="sans-serif" font-size="14" font-style="italic" lengthAdjust="spacing" textLength="27" x="401.75" y="65.7793">AST</text><line style="stroke:#181818;stroke-width:0.5;" x1="315" x2="483" y1="76.4883" y2="76.4883"/><text fill="#000000" font-family="sans-serif" font-size="14" lengthAdjust="spacing" textLength="97" x="320" y="94.0234">AST[] children</text><line style="stroke:#181818;stroke-width:0.5;" x1="315" x2="483" y1="100.9766" y2="100.9766"/><text fill="#000000" font-family="sans-serif" font-size="14" lengthAdjust="spacing" textLength="143" x="320" y="118.5117">void resolveFirstSet()</text><text fill="#000000" font-family="sans-serif" font-size="14" lengthAdjust="spacing" textLength="158" x="320" y="135">void resolveFollowSet()</text><text fill="#000000" font-family="sans-serif" font-size="14" lengthAdjust="spacing" textLength="131" x="320" y="151.4883">NFA generateNFA()</text></g><!--class AndExpr--><g id="elem_AndExpr"><rect codeLine="73" fill="#F1F1F1" height="130.4414" id="AndExpr" rx="2.5" ry="2.5" style="stroke:#181818;stroke-width:0.5;" width="170" x="7" y="218.4883"/><ellipse cx="57.75" cy="234.4883" fill="#ADD1B2" rx="11" ry="11" style="stroke:#181818;stroke-width:1.0;"/><path d="M60.2231,240.6313 Q59.6421,240.9302 59.0029,241.0796 Q58.3638,241.229 57.6582,241.229 Q55.1514,241.229 53.8315,239.5771 Q52.5117,237.9253 52.5117,234.8042 Q52.5117,231.6748 53.8315,230.0229 Q55.1514,228.3711 57.6582,228.3711 Q58.3638,228.3711 59.0112,228.5205 Q59.6587,228.6699 60.2231,228.9688 L60.2231,231.6914 Q59.5923,231.1104 58.9988,230.8406 Q58.4053,230.5708 57.7744,230.5708 Q56.4297,230.5708 55.7449,231.6375 Q55.0601,232.7041 55.0601,234.8042 Q55.0601,236.896 55.7449,237.9626 Q56.4297,239.0293 57.7744,239.0293 Q58.4053,239.0293 58.9988,238.7595 Q59.5923,238.4897 60.2231,237.9087 Z " fill="#000000"/><text fill="#000000" font-family="sans-serif" font-size="14" lengthAdjust="spacing" textLength="60" x="78.25" y="239.7793">AndExpr</text><line style="stroke:#181818;stroke-width:0.5;" x1="8" x2="176" y1="250.4883" y2="250.4883"/><text fill="#000000" font-family="sans-serif" font-size="14" lengthAdjust="spacing" textLength="61" x="13" y="268.0234">left : AST</text><text fill="#000000" font-family="sans-serif" font-size="14" lengthAdjust="spacing" textLength="72" x="13" y="284.5117">right : AST</text><line style="stroke:#181818;stroke-width:0.5;" x1="8" x2="176" y1="291.4648" y2="291.4648"/><text fill="#000000" font-family="sans-serif" font-size="14" lengthAdjust="spacing" textLength="143" x="13" y="309">void resolveFirstSet()</text><text fill="#000000" font-family="sans-serif" font-size="14" lengthAdjust="spacing" textLength="158" x="13" y="325.4883">void resolveFollowSet()</text><text fill="#000000" font-family="sans-serif" font-size="14" lengthAdjust="spacing" textLength="131" x="13" y="341.9766">NFA generateNFA()</text></g><!--class OrExpr--><g id="elem_OrExpr"><rect codeLine="83" fill="#F1F1F1" height="130.4414" id="OrExpr" rx="2.5" ry="2.5" style="stroke:#181818;stroke-width:0.5;" width="170" x="212" y="218.4883"/><ellipse cx="268.25" cy="234.4883" fill="#ADD1B2" rx="11" ry="11" style="stroke:#181818;stroke-width:1.0;"/><path d="M270.7231,240.6313 Q270.1421,240.9302 269.5029,241.0796 Q268.8638,241.229 268.1582,241.229 Q265.6514,241.229 264.3315,239.5771 Q263.0117,237.9253 263.0117,234.8042 Q263.0117,231.6748 264.3315,230.0229 Q265.6514,228.3711 268.1582,228.3711 Q268.8638,228.3711 269.5112,228.5205 Q270.1587,228.6699 270.7231,228.9688 L270.7231,231.6914 Q270.0923,231.1104 269.4988,230.8406 Q268.9053,230.5708 268.2744,230.5708 Q266.9297,230.5708 266.2449,231.6375 Q265.5601,232.7041 265.5601,234.8042 Q265.5601,236.896 266.2449,237.9626 Q266.9297,239.0293 268.2744,239.0293 Q268.9053,239.0293 269.4988,238.7595 Q270.0923,238.4897 270.7231,237.9087 Z " fill="#000000"/><text fill="#000000" font-family="sans-serif" font-size="14" lengthAdjust="spacing" textLength="49" x="288.75" y="239.7793">OrExpr</text><line style="stroke:#181818;stroke-width:0.5;" x1="213" x2="381" y1="250.4883" y2="250.4883"/><text fill="#000000" font-family="sans-serif" font-size="14" lengthAdjust="spacing" textLength="61" x="218" y="268.0234">left : AST</text><text fill="#000000" font-family="sans-serif" font-size="14" lengthAdjust="spacing" textLength="72" x="218" y="284.5117">right : AST</text><line style="stroke:#181818;stroke-width:0.5;" x1="213" x2="381" y1="291.4648" y2="291.4648"/><text fill="#000000" font-family="sans-serif" font-size="14" lengthAdjust="spacing" textLength="143" x="218" y="309">void resolveFirstSet()</text><text fill="#000000" font-family="sans-serif" font-size="14" lengthAdjust="spacing" textLength="158" x="218" y="325.4883">void resolveFollowSet()</text><text fill="#000000" font-family="sans-serif" font-size="14" lengthAdjust="spacing" textLength="131" x="218" y="341.9766">NFA generateNFA()</text></g><!--class UnaryExpr--><g id="elem_UnaryExpr"><rect codeLine="94" fill="#F1F1F1" height="130.4414" id="UnaryExpr" rx="2.5" ry="2.5" style="stroke:#181818;stroke-width:0.5;" width="170" x="417" y="218.4883"/><ellipse cx="461.75" cy="234.4883" fill="#ADD1B2" rx="11" ry="11" style="stroke:#181818;stroke-width:1.0;"/><path d="M464.2231,240.6313 Q463.6421,240.9302 463.0029,241.0796 Q462.3638,241.229 461.6582,241.229 Q459.1514,241.229 457.8315,239.5771 Q456.5117,237.9253 456.5117,234.8042 Q456.5117,231.6748 457.8315,230.0229 Q459.1514,228.3711 461.6582,228.3711 Q462.3638,228.3711 463.0112,228.5205 Q463.6587,228.6699 464.2231,228.9688 L464.2231,231.6914 Q463.5923,231.1104 462.9988,230.8406 Q462.4053,230.5708 461.7744,230.5708 Q460.4297,230.5708 459.7449,231.6375 Q459.0601,232.7041 459.0601,234.8042 Q459.0601,236.896 459.7449,237.9626 Q460.4297,239.0293 461.7744,239.0293 Q462.4053,239.0293 462.9988,238.7595 Q463.5923,238.4897 464.2231,237.9087 Z " fill="#000000"/><text fill="#000000" font-family="sans-serif" font-size="14" lengthAdjust="spacing" textLength="72" x="482.25" y="239.7793">UnaryExpr</text><line style="stroke:#181818;stroke-width:0.5;" x1="418" x2="586" y1="250.4883" y2="250.4883"/><text fill="#000000" font-family="sans-serif" font-size="14" lengthAdjust="spacing" textLength="71" x="423" y="268.0234">expr : AST</text><text fill="#000000" font-family="sans-serif" font-size="14" lengthAdjust="spacing" textLength="115" x="423" y="284.5117">operator : Token</text><line style="stroke:#181818;stroke-width:0.5;" x1="418" x2="586" y1="291.4648" y2="291.4648"/><text fill="#000000" font-family="sans-serif" font-size="14" lengthAdjust="spacing" textLength="143" x="423" y="309">void resolveFirstSet()</text><text fill="#000000" font-family="sans-serif" font-size="14" lengthAdjust="spacing" textLength="158" x="423" y="325.4883">void resolveFollowSet()</text><text fill="#000000" font-family="sans-serif" font-size="14" lengthAdjust="spacing" textLength="131" x="423" y="341.9766">NFA generateNFA()</text></g><!--class Token--><g id="elem_Token"><rect codeLine="104" fill="#F1F1F1" height="113.9531" id="Token" rx="2.5" ry="2.5" style="stroke:#181818;stroke-width:0.5;" width="170" x="622" y="226.4883"/><ellipse cx="681.25" cy="242.4883" fill="#ADD1B2" rx="11" ry="11" style="stroke:#181818;stroke-width:1.0;"/><path d="M683.7231,248.6313 Q683.1421,248.9302 682.5029,249.0796 Q681.8638,249.229 681.1582,249.229 Q678.6514,249.229 677.3315,247.5771 Q676.0117,245.9253 676.0117,242.8042 Q676.0117,239.6748 677.3315,238.0229 Q678.6514,236.3711 681.1582,236.3711 Q681.8638,236.3711 682.5112,236.5205 Q683.1587,236.6699 683.7231,236.9688 L683.7231,239.6914 Q683.0923,239.1104 682.4988,238.8406 Q681.9053,238.5708 681.2744,238.5708 Q679.9297,238.5708 679.2449,239.6375 Q678.5601,240.7041 678.5601,242.8042 Q678.5601,244.896 679.2449,245.9626 Q679.9297,247.0293 681.2744,247.0293 Q681.9053,247.0293 682.4988,246.7595 Q683.0923,246.4897 683.7231,245.9087 Z " fill="#000000"/><text fill="#000000" font-family="sans-serif" font-size="14" lengthAdjust="spacing" textLength="43" x="701.75" y="247.7793">Token</text><line style="stroke:#181818;stroke-width:0.5;" x1="623" x2="791" y1="258.4883" y2="258.4883"/><text fill="#000000" font-family="sans-serif" font-size="14" lengthAdjust="spacing" textLength="95" x="628" y="276.0234">lexme : String</text><line style="stroke:#181818;stroke-width:0.5;" x1="623" x2="791" y1="282.9766" y2="282.9766"/><text fill="#000000" font-family="sans-serif" font-size="14" lengthAdjust="spacing" textLength="143" x="628" y="300.5117">void resolveFirstSet()</text><text fill="#000000" font-family="sans-serif" font-size="14" lengthAdjust="spacing" textLength="158" x="628" y="317">void resolveFollowSet()</text><text fill="#000000" font-family="sans-serif" font-size="14" lengthAdjust="spacing" textLength="131" x="628" y="333.4883">NFA generateNFA()</text></g><!--reverse link AST to AndExpr--><g id="link_AST_AndExpr"><path codeLine="71" d="M295.8803,159.0428 C263.1131,177.6774 226.859,198.6577 194,218.4883 C188.5167,221.7975 182.8921,225.2408 177.2378,228.7393 " fill="none" id="AST-backto-AndExpr" style="stroke:#181818;stroke-width:1.0;"/><polygon fill="none" points="292.8304,152.7253,313.6818,148.9538,299.7334,164.9051,292.8304,152.7253" style="stroke:#181818;stroke-width:1.0;"/></g><!--reverse link AST to OrExpr--><g id="link_AST_OrExpr"><path codeLine="82" d="M356.9926,176.4427 C349.1999,190.3472 341.118,204.7679 333.5059,218.3504 " fill="none" id="AST-backto-OrExpr" style="stroke:#181818;stroke-width:1.0;"/><polygon fill="none" points="351.1221,172.5995,367.0064,158.5749,363.3349,179.444,351.1221,172.5995" style="stroke:#181818;stroke-width:1.0;"/></g><!--reverse link AST to UnaryExpr--><g id="link_AST_UnaryExpr"><path codeLine="92" d="M441.4192,176.4427 C449.2883,190.3472 457.4495,204.7679 465.1362,218.3504 " fill="none" id="AST-backto-UnaryExpr" style="stroke:#181818;stroke-width:1.0;"/><polygon fill="none" points="435.0658,179.4285,431.3072,158.5749,447.25,172.5331,435.0658,179.4285" style="stroke:#181818;stroke-width:1.0;"/></g><!--reverse link AST to Token--><g id="link_AST_Token"><path codeLine="103" d="M501.5186,158.3591 C534.741,177.1491 571.6224,198.3924 605,218.4883 C610.4868,221.7918 616.114,225.2307 621.7703,228.726 " fill="none" id="AST-backto-Token" style="stroke:#181818;stroke-width:1.0;"/><polygon fill="none" points="497.9885,164.4048,484.0022,148.4867,504.8625,152.2085,497.9885,164.4048" style="stroke:#181818;stroke-width:1.0;"/></g><!--SRC=[AyaioKcrKdWwVzUJNNqlbYz-sTxrTEQAPoiMFjtJ_tnMoulrQv_ix7pQqVPitWIkpBoIrAAqnEHK1SVW48LgBWKG7Hsha9oHcPDIb9e752ZBpqnHA4ejpiyfItNBB2ek2KujqT14byZFoSalXyXm-havAgIdvgKM9PQa0jb0eLekBg2vDZMwkevvAQuL1KLSNCavYSN52b0kq6REdDIq4WKhaFrSd4MPwHam3XSdTLtWNmHs0CH-28UUrYk4vYKMLIA70Lm0v8nK40rrHdu1o8Hy43yaFniO6LHt2yHOY3F0R710LEIc0gqCBYdAp4kdbfq0]--></g></svg>