<?xml version="1.0" encoding="us-ascii" standalone="no"?><svg xmlns="http://www.w3.org/2000/svg" xmlns:xlink="http://www.w3.org/1999/xlink" contentStyleType="text/css" height="256px" preserveAspectRatio="none" style="width:744px;height:256px;background:#FFFFFF;" version="1.1" viewBox="0 0 744 256" width="744px" zoomAndPan="magnify"><defs/><g><text fill="#000000" font-family="sans-serif" font-size="14" font-weight="bold" lengthAdjust="spacing" textLength="154" x="288" y="23.5352">&#22522;&#20110;&#35775;&#23458;&#27169;&#24335;&#30340;&#35821;&#20041;&#20998;&#26512;</text><!--class AST--><g id="elem_AST"><rect codeLine="116" fill="#F1F1F1" height="64.4883" id="AST" rx="2.5" ry="2.5" style="stroke:#181818;stroke-width:0.5;" width="109" x="387" y="44.4883"/><ellipse cx="424.5" cy="60.4883" fill="#B4A7E5" rx="11" ry="11" style="stroke:#181818;stroke-width:1.0;"/><path d="M420.9277,56.7534 L420.9277,54.5952 L428.3071,54.5952 L428.3071,56.7534 L425.8418,56.7534 L425.8418,64.8301 L428.3071,64.8301 L428.3071,66.9883 L420.9277,66.9883 L420.9277,64.8301 L423.3931,64.8301 L423.3931,56.7534 Z " fill="#000000"/><text fill="#000000" font-family="sans-serif" font-size="14" font-style="italic" lengthAdjust="spacing" textLength="27" x="443.5" y="65.7793">AST</text><line style="stroke:#181818;stroke-width:0.5;" x1="388" x2="495" y1="76.4883" y2="76.4883"/><text fill="#000000" font-family="sans-serif" font-size="14" lengthAdjust="spacing" textLength="97" x="393" y="94.0234">AST[] children</text><line style="stroke:#181818;stroke-width:0.5;" x1="388" x2="495" y1="100.9766" y2="100.9766"/></g><!--class AndExpr--><g id="elem_AndExpr"><rect codeLine="122" fill="#F1F1F1" height="80.9766" id="AndExpr" rx="2.5" ry="2.5" style="stroke:#181818;stroke-width:0.5;" width="92" x="221.5" y="168.4883"/><ellipse cx="236.5" cy="184.4883" fill="#ADD1B2" rx="11" ry="11" style="stroke:#181818;stroke-width:1.0;"/><path d="M238.9731,190.6313 Q238.3921,190.9302 237.7529,191.0796 Q237.1138,191.229 236.4082,191.229 Q233.9014,191.229 232.5815,189.5771 Q231.2617,187.9253 231.2617,184.8042 Q231.2617,181.6748 232.5815,180.0229 Q233.9014,178.3711 236.4082,178.3711 Q237.1138,178.3711 237.7612,178.5205 Q238.4087,178.6699 238.9731,178.9688 L238.9731,181.6914 Q238.3423,181.1104 237.7488,180.8406 Q237.1553,180.5708 236.5244,180.5708 Q235.1797,180.5708 234.4949,181.6375 Q233.8101,182.7041 233.8101,184.8042 Q233.8101,186.896 234.4949,187.9626 Q235.1797,189.0293 236.5244,189.0293 Q237.1553,189.0293 237.7488,188.7595 Q238.3423,188.4897 238.9731,187.9087 Z " fill="#000000"/><text fill="#000000" font-family="sans-serif" font-size="14" lengthAdjust="spacing" textLength="60" x="250.5" y="189.7793">AndExpr</text><line style="stroke:#181818;stroke-width:0.5;" x1="222.5" x2="312.5" y1="200.4883" y2="200.4883"/><text fill="#000000" font-family="sans-serif" font-size="14" lengthAdjust="spacing" textLength="61" x="227.5" y="218.0234">left : AST</text><text fill="#000000" font-family="sans-serif" font-size="14" lengthAdjust="spacing" textLength="72" x="227.5" y="234.5117">right : AST</text><line style="stroke:#181818;stroke-width:0.5;" x1="222.5" x2="312.5" y1="241.4648" y2="241.4648"/></g><!--class OrExpr--><g id="elem_OrExpr"><rect codeLine="128" fill="#F1F1F1" height="80.9766" id="OrExpr" rx="2.5" ry="2.5" style="stroke:#181818;stroke-width:0.5;" width="84" x="348.5" y="168.4883"/><ellipse cx="364.85" cy="184.4883" fill="#ADD1B2" rx="11" ry="11" style="stroke:#181818;stroke-width:1.0;"/><path d="M367.3231,190.6313 Q366.7421,190.9302 366.1029,191.0796 Q365.4638,191.229 364.7582,191.229 Q362.2514,191.229 360.9315,189.5771 Q359.6117,187.9253 359.6117,184.8042 Q359.6117,181.6748 360.9315,180.0229 Q362.2514,178.3711 364.7582,178.3711 Q365.4638,178.3711 366.1112,178.5205 Q366.7587,178.6699 367.3231,178.9688 L367.3231,181.6914 Q366.6923,181.1104 366.0988,180.8406 Q365.5053,180.5708 364.8744,180.5708 Q363.5297,180.5708 362.8449,181.6375 Q362.1601,182.7041 362.1601,184.8042 Q362.1601,186.896 362.8449,187.9626 Q363.5297,189.0293 364.8744,189.0293 Q365.5053,189.0293 366.0988,188.7595 Q366.6923,188.4897 367.3231,187.9087 Z " fill="#000000"/><text fill="#000000" font-family="sans-serif" font-size="14" lengthAdjust="spacing" textLength="49" x="379.15" y="189.7793">OrExpr</text><line style="stroke:#181818;stroke-width:0.5;" x1="349.5" x2="431.5" y1="200.4883" y2="200.4883"/><text fill="#000000" font-family="sans-serif" font-size="14" lengthAdjust="spacing" textLength="61" x="354.5" y="218.0234">left : AST</text><text fill="#000000" font-family="sans-serif" font-size="14" lengthAdjust="spacing" textLength="72" x="354.5" y="234.5117">right : AST</text><line style="stroke:#181818;stroke-width:0.5;" x1="349.5" x2="431.5" y1="241.4648" y2="241.4648"/></g><!--class UnaryExpr--><g id="elem_UnaryExpr"><rect codeLine="135" fill="#F1F1F1" height="80.9766" id="UnaryExpr" rx="2.5" ry="2.5" style="stroke:#181818;stroke-width:0.5;" width="127" x="468" y="168.4883"/><ellipse cx="493.35" cy="184.4883" fill="#ADD1B2" rx="11" ry="11" style="stroke:#181818;stroke-width:1.0;"/><path d="M495.8231,190.6313 Q495.2421,190.9302 494.6029,191.0796 Q493.9638,191.229 493.2582,191.229 Q490.7514,191.229 489.4315,189.5771 Q488.1117,187.9253 488.1117,184.8042 Q488.1117,181.6748 489.4315,180.0229 Q490.7514,178.3711 493.2582,178.3711 Q493.9638,178.3711 494.6112,178.5205 Q495.2587,178.6699 495.8231,178.9688 L495.8231,181.6914 Q495.1923,181.1104 494.5988,180.8406 Q494.0053,180.5708 493.3744,180.5708 Q492.0297,180.5708 491.3449,181.6375 Q490.6601,182.7041 490.6601,184.8042 Q490.6601,186.896 491.3449,187.9626 Q492.0297,189.0293 493.3744,189.0293 Q494.0053,189.0293 494.5988,188.7595 Q495.1923,188.4897 495.8231,187.9087 Z " fill="#000000"/><text fill="#000000" font-family="sans-serif" font-size="14" lengthAdjust="spacing" textLength="72" x="509.65" y="189.7793">UnaryExpr</text><line style="stroke:#181818;stroke-width:0.5;" x1="469" x2="594" y1="200.4883" y2="200.4883"/><text fill="#000000" font-family="sans-serif" font-size="14" lengthAdjust="spacing" textLength="71" x="474" y="218.0234">expr : AST</text><text fill="#000000" font-family="sans-serif" font-size="14" lengthAdjust="spacing" textLength="115" x="474" y="234.5117">operator : Token</text><line style="stroke:#181818;stroke-width:0.5;" x1="469" x2="594" y1="241.4648" y2="241.4648"/></g><!--class Token--><g id="elem_Token"><rect codeLine="141" fill="#F1F1F1" height="64.4883" id="Token" rx="2.5" ry="2.5" style="stroke:#181818;stroke-width:0.5;" width="107" x="630" y="176.9883"/><ellipse cx="659.4" cy="192.9883" fill="#ADD1B2" rx="11" ry="11" style="stroke:#181818;stroke-width:1.0;"/><path d="M661.8731,199.1313 Q661.2921,199.4302 660.6529,199.5796 Q660.0138,199.729 659.3082,199.729 Q656.8014,199.729 655.4815,198.0771 Q654.1617,196.4253 654.1617,193.3042 Q654.1617,190.1748 655.4815,188.5229 Q656.8014,186.8711 659.3082,186.8711 Q660.0138,186.8711 660.6612,187.0205 Q661.3087,187.1699 661.8731,187.4688 L661.8731,190.1914 Q661.2423,189.6104 660.6488,189.3406 Q660.0553,189.0708 659.4244,189.0708 Q658.0797,189.0708 657.3949,190.1375 Q656.7101,191.2041 656.7101,193.3042 Q656.7101,195.396 657.3949,196.4626 Q658.0797,197.5293 659.4244,197.5293 Q660.0553,197.5293 660.6488,197.2595 Q661.2423,196.9897 661.8731,196.4087 Z " fill="#000000"/><text fill="#000000" font-family="sans-serif" font-size="14" lengthAdjust="spacing" textLength="43" x="676.6" y="198.2793">Token</text><line style="stroke:#181818;stroke-width:0.5;" x1="631" x2="736" y1="208.9883" y2="208.9883"/><text fill="#000000" font-family="sans-serif" font-size="14" lengthAdjust="spacing" textLength="95" x="636" y="226.5234">lexme : String</text><line style="stroke:#181818;stroke-width:0.5;" x1="631" x2="736" y1="233.4766" y2="233.4766"/></g><!--class FirstSetVisitor--><g id="elem_FirstSetVisitor"><rect codeLine="145" fill="#F1F1F1" height="64.4883" id="FirstSetVisitor" rx="2.5" ry="2.5" style="stroke:#181818;stroke-width:0.5;" width="127" x="8" y="44.4883"/><ellipse cx="23" cy="60.4883" fill="#B4A7E5" rx="11" ry="11" style="stroke:#181818;stroke-width:1.0;"/><path d="M19.4277,56.7534 L19.4277,54.5952 L26.8071,54.5952 L26.8071,56.7534 L24.3418,56.7534 L24.3418,64.8301 L26.8071,64.8301 L26.8071,66.9883 L19.4277,66.9883 L19.4277,64.8301 L21.8931,64.8301 L21.8931,56.7534 Z " fill="#000000"/><text fill="#000000" font-family="sans-serif" font-size="14" font-style="italic" lengthAdjust="spacing" textLength="95" x="37" y="65.7793">FirstSetVisitor</text><line style="stroke:#181818;stroke-width:0.5;" x1="9" x2="134" y1="76.4883" y2="76.4883"/><line style="stroke:#181818;stroke-width:0.5;" x1="9" x2="134" y1="84.4883" y2="84.4883"/><text fill="#000000" font-family="sans-serif" font-size="14" lengthAdjust="spacing" textLength="92" x="14" y="102.0234">visit(ast :AST)</text></g><!--class FollowSetVisitor--><g id="elem_FollowSetVisitor"><rect codeLine="149" fill="#F1F1F1" height="64.4883" id="FollowSetVisitor" rx="2.5" ry="2.5" style="stroke:#181818;stroke-width:0.5;" width="142" x="170.5" y="44.4883"/><ellipse cx="185.5" cy="60.4883" fill="#B4A7E5" rx="11" ry="11" style="stroke:#181818;stroke-width:1.0;"/><path d="M181.9277,56.7534 L181.9277,54.5952 L189.3071,54.5952 L189.3071,56.7534 L186.8418,56.7534 L186.8418,64.8301 L189.3071,64.8301 L189.3071,66.9883 L181.9277,66.9883 L181.9277,64.8301 L184.3931,64.8301 L184.3931,56.7534 Z " fill="#000000"/><text fill="#000000" font-family="sans-serif" font-size="14" font-style="italic" lengthAdjust="spacing" textLength="110" x="199.5" y="65.7793">FollowSetVisitor</text><line style="stroke:#181818;stroke-width:0.5;" x1="171.5" x2="311.5" y1="76.4883" y2="76.4883"/><line style="stroke:#181818;stroke-width:0.5;" x1="171.5" x2="311.5" y1="84.4883" y2="84.4883"/><text fill="#000000" font-family="sans-serif" font-size="14" lengthAdjust="spacing" textLength="92" x="176.5" y="102.0234">visit(ast :AST)</text></g><!--class NFAGenerator--><g id="elem_NFAGenerator"><rect codeLine="153" fill="#F1F1F1" height="64.4883" id="NFAGenerator" rx="2.5" ry="2.5" style="stroke:#181818;stroke-width:0.5;" width="129" x="7" y="176.9883"/><ellipse cx="22" cy="192.9883" fill="#B4A7E5" rx="11" ry="11" style="stroke:#181818;stroke-width:1.0;"/><path d="M18.4277,189.2534 L18.4277,187.0952 L25.8071,187.0952 L25.8071,189.2534 L23.3418,189.2534 L23.3418,197.3301 L25.8071,197.3301 L25.8071,199.4883 L18.4277,199.4883 L18.4277,197.3301 L20.8931,197.3301 L20.8931,189.2534 Z " fill="#000000"/><text fill="#000000" font-family="sans-serif" font-size="14" font-style="italic" lengthAdjust="spacing" textLength="97" x="36" y="198.2793">NFAGenerator</text><line style="stroke:#181818;stroke-width:0.5;" x1="8" x2="135" y1="208.9883" y2="208.9883"/><line style="stroke:#181818;stroke-width:0.5;" x1="8" x2="135" y1="216.9883" y2="216.9883"/><text fill="#000000" font-family="sans-serif" font-size="14" lengthAdjust="spacing" textLength="92" x="13" y="234.5234">visit(ast :AST)</text></g><!--reverse link AST to AndExpr--><g id="link_AST_AndExpr"><path codeLine="120" d="M383.4397,120.7009 C360.6823,138.0305 334.9434,157.6306 313.5081,173.9534 " fill="none" id="AST-backto-AndExpr" style="stroke:#181818;stroke-width:1.0;"/><polygon fill="none" points="379.2268,115.1105,399.3795,108.5629,387.7085,126.2488,379.2268,115.1105" style="stroke:#181818;stroke-width:1.0;"/></g><!--reverse link AST to OrExpr--><g id="link_AST_OrExpr"><path codeLine="127" d="M421.9006,127.4082 C416.7072,140.9009 411.1684,155.2911 406.2113,168.1697 " fill="none" id="AST-backto-OrExpr" style="stroke:#181818;stroke-width:1.0;"/><polygon fill="none" points="415.4372,124.7134,429.1543,108.5629,428.5027,129.7425,415.4372,124.7134" style="stroke:#181818;stroke-width:1.0;"/></g><!--reverse link AST to UnaryExpr--><g id="link_AST_UnaryExpr"><path codeLine="133" d="M474.8124,125.5316 C484.3405,139.559 494.6196,154.6921 503.7742,168.1697 " fill="none" id="AST-backto-UnaryExpr" style="stroke:#181818;stroke-width:1.0;"/><polygon fill="none" points="468.7337,129.0404,463.2865,108.5629,480.3147,121.174,468.7337,129.0404" style="stroke:#181818;stroke-width:1.0;"/></g><!--reverse link AST to Token--><g id="link_AST_Token"><path codeLine="140" d="M514.1072,115.0401 C544.59,131.3579 580.3601,150.6794 612.5,168.4883 C618.0857,171.5834 623.9015,174.8417 629.6939,178.1103 " fill="none" id="AST-backto-Token" style="stroke:#181818;stroke-width:1.0;"/><polygon fill="none" points="510.7076,121.1603,496.3656,105.562,517.3046,108.812,510.7076,121.1603" style="stroke:#181818;stroke-width:1.0;"/></g><!--SRC=[AyaioKcrKdWwVzUJNNqlrkr_kcxHinKBd-xfVpwhvSNwjKzsTZxjQ7isRm9NPbv9Qb5QOdAgWcDmY48rbmA8ZevLICx8p4afIitZgkNY0ehOrEZgEkQbk5OK575n9USa5XShGBb0FPmvgMab2bOWdLoSHPdf6J0EGgz_4LWhH2U4Gvn6XT2ynA9AP7lX0Y03Ka4qr83yWjIYn99y43yaFnl5wL01Y05WDjZoYjnKeEBWagBCl7IGQaHWk6KM5PS4fvQ4PHPd0eq4gYu3iJGIYu5E11ggYQOyFoSdlvnuzNvkZkwfUH3dObCB0000]--></g></svg>