<?xml version="1.0" encoding="us-ascii" standalone="no"?><svg xmlns="http://www.w3.org/2000/svg" xmlns:xlink="http://www.w3.org/1999/xlink" contentStyleType="text/css" height="567px" preserveAspectRatio="none" style="width:538px;height:567px;background:#FFFFFF;" version="1.1" viewBox="0 0 538 567" width="538px" zoomAndPan="magnify"><defs/><g><text fill="#000000" font-family="sans-serif" font-size="14" font-weight="bold" lengthAdjust="spacing" textLength="274" x="125.25" y="23.5352">lookahead&#20026;else&#26102;,&#36873;&#25321;&#24402;&#32422;&#29983;&#25104;&#30340;&#35821;&#27861;&#26641;</text><rect fill="#F1F1F1" height="40" rx="12.5" ry="12.5" style="stroke:#181818;stroke-width:0.5;" width="50" x="219" y="44.4883"/><text fill="#000000" font-family="sans-serif" font-size="14" lengthAdjust="spacing" textLength="12" x="238" y="69.7793">IF</text><rect fill="#F1F1F1" height="40" rx="12.5" ry="12.5" style="stroke:#181818;stroke-width:0.5;" width="50" x="7" y="144.4883"/><text fill="#000000" font-family="sans-serif" font-size="14" lengthAdjust="spacing" textLength="9" x="27.5" y="169.7793">if</text><rect fill="#F1F1F1" height="40" rx="12.5" ry="12.5" style="stroke:#181818;stroke-width:0.5;" width="89" x="92.5" y="144.4883"/><text fill="#000000" font-family="sans-serif" font-size="14" lengthAdjust="spacing" textLength="79" x="97.5" y="169.7793">CONDITION</text><rect fill="#F1F1F1" height="40" rx="12.5" ry="12.5" style="stroke:#181818;stroke-width:0.5;" width="55" x="216.5" y="144.4883"/><text fill="#000000" font-family="sans-serif" font-size="14" lengthAdjust="spacing" textLength="45" x="221.5" y="169.7793">BLOCK</text><rect fill="#F1F1F1" height="40" rx="12.5" ry="12.5" style="stroke:#181818;stroke-width:0.5;" width="50" x="174" y="252.4883"/><text fill="#000000" font-family="sans-serif" font-size="14" lengthAdjust="spacing" textLength="12" x="193" y="277.7793">IF</text><rect fill="#F1F1F1" height="40" rx="12.5" ry="12.5" style="stroke:#181818;stroke-width:0.5;" width="50" x="69" y="360.4883"/><text fill="#000000" font-family="sans-serif" font-size="14" lengthAdjust="spacing" textLength="9" x="89.5" y="385.7793">if</text><rect fill="#F1F1F1" height="40" rx="12.5" ry="12.5" style="stroke:#181818;stroke-width:0.5;" width="89" x="154.5" y="360.4883"/><text fill="#000000" font-family="sans-serif" font-size="14" lengthAdjust="spacing" textLength="79" x="159.5" y="385.7793">CONDITION</text><rect fill="#F1F1F1" height="40" rx="12.5" ry="12.5" style="stroke:#181818;stroke-width:0.5;" width="55" x="278.5" y="360.4883"/><text fill="#000000" font-family="sans-serif" font-size="14" lengthAdjust="spacing" textLength="45" x="283.5" y="385.7793">BLOCK</text><rect fill="#F1F1F1" height="40" rx="12.5" ry="12.5" style="stroke:#181818;stroke-width:0.5;" width="93" x="259.5" y="521.4883"/><text fill="#000000" font-family="sans-serif" font-size="14" lengthAdjust="spacing" textLength="83" x="264.5" y="546.7793">STATEMENT</text><rect fill="#F1F1F1" height="40" rx="12.5" ry="12.5" style="stroke:#181818;stroke-width:0.5;" width="50" x="307" y="144.4883"/><text fill="#000000" font-family="sans-serif" font-size="14" lengthAdjust="spacing" textLength="27" x="318.5" y="169.7793">else</text><rect fill="#F1F1F1" height="40" rx="12.5" ry="12.5" style="stroke:#181818;stroke-width:0.5;" width="55" x="425.5" y="144.4883"/><text fill="#000000" font-family="sans-serif" font-size="14" lengthAdjust="spacing" textLength="45" x="430.5" y="169.7793">BLOCK</text><rect fill="#F1F1F1" height="40" rx="12.5" ry="12.5" style="stroke:#181818;stroke-width:0.5;" width="93" x="439.5" y="252.4883"/><text fill="#000000" font-family="sans-serif" font-size="14" lengthAdjust="spacing" textLength="83" x="444.5" y="277.7793">STATEMENT</text><g id="elem_GMN25"><path d="M259.5,244.4883 L259.5,300.4199 A0,0 0 0 0 259.5,300.4199 L404.5,300.4199 A0,0 0 0 0 404.5,300.4199 L404.5,254.4883 L394.5,244.4883 L336,244.4883 L332,184.5492 L328,244.4883 L259.5,244.4883 A0,0 0 0 0 259.5,244.4883 " fill="#FEFFDD" style="stroke:#181818;stroke-width:0.5;"/><path d="M394.5,244.4883 L394.5,254.4883 L404.5,254.4883 L394.5,244.4883 " fill="#FEFFDD" style="stroke:#181818;stroke-width:0.5;"/><text fill="#000000" font-family="sans-serif" font-size="13" lengthAdjust="spacing" textLength="17" x="265.5" y="262.0566">&#10060;</text><text fill="#000000" font-family="sans-serif" font-size="13" lengthAdjust="spacing" textLength="117" x="265.5" y="277.3672">else &#19982;&#22806;&#23618; IF &#32467;&#21512;,</text><text fill="#000000" font-family="sans-serif" font-size="13" lengthAdjust="spacing" textLength="124" x="265.5" y="292.6777">&#30772;&#22351;&#20102; else &#23601;&#36817;&#21407;&#21017;</text></g><!--link b1 to b2--><g id="link_b1_b2"><path d="M218.8483,76.3523 C179.5611,94.884 103.7935,130.6235 61.8176,150.4234 " fill="none" id="b1-to-b2" style="stroke:#181818;stroke-width:1.0;"/><polygon fill="#181818" points="57.119,152.6397,66.9654,152.4177,61.6411,150.5065,63.5523,145.1823,57.119,152.6397" style="stroke:#181818;stroke-width:1.0;"/></g><!--link b1 to b3--><g id="link_b1_b3"><path d="M222.347,84.7248 C205.0882,100.8545 180.8775,123.4813 162.6486,140.5177 " fill="none" id="b1-to-b3" style="stroke:#181818;stroke-width:1.0;"/><polygon fill="#181818" points="158.6208,144.2819,167.9274,141.0591,162.2738,140.8679,162.465,135.2142,158.6208,144.2819" style="stroke:#181818;stroke-width:1.0;"/></g><!--link b1 to b4--><g id="link_b1_b4"><path d="M244,84.7248 C244,100.4478 244,122.3446 244,139.2187 " fill="none" id="b1-to-b4" style="stroke:#181818;stroke-width:1.0;"/><polygon fill="#181818" points="244,144.2819,248,135.2819,244,139.2819,240,135.2819,244,144.2819" style="stroke:#181818;stroke-width:1.0;"/></g><!--link b4 to b5--><g id="link_b4_b5"><path d="M235.6413,184.5492 C228.2369,202.3197 217.3965,228.3367 209.4271,247.4633 " fill="none" id="b4-to-b5" style="stroke:#181818;stroke-width:1.0;"/><polygon fill="#181818" points="207.4666,252.1684,214.6205,245.3992,209.3897,247.553,207.2359,242.3222,207.4666,252.1684" style="stroke:#181818;stroke-width:1.0;"/></g><!--link b5 to b6--><g id="link_b5_b6"><path d="M179.4964,292.5492 C161.9267,310.6209 136.0655,337.221 117.3901,356.4299 " fill="none" id="b5-to-b6" style="stroke:#181818;stroke-width:1.0;"/><polygon fill="#181818" points="113.7555,360.1684,122.8972,356.5038,117.2409,356.5834,117.1612,350.9271,113.7555,360.1684" style="stroke:#181818;stroke-width:1.0;"/></g><!--link b5 to b7--><g id="link_b5_b7"><path d="M199,292.5492 C199,310.1691 199,335.8963 199,354.9756 " fill="none" id="b5-to-b7" style="stroke:#181818;stroke-width:1.0;"/><polygon fill="#181818" points="199,360.1684,203,351.1684,199,355.1684,195,351.1684,199,360.1684" style="stroke:#181818;stroke-width:1.0;"/></g><!--link b5 to b8--><g id="link_b5_b8"><path d="M218.8751,292.5492 C236.7795,310.6209 263.1333,337.221 282.1643,356.4299 " fill="none" id="b5-to-b8" style="stroke:#181818;stroke-width:1.0;"/><polygon fill="#181818" points="285.8682,360.1684,282.3752,350.9597,282.3491,356.6165,276.6923,356.5904,285.8682,360.1684" style="stroke:#181818;stroke-width:1.0;"/></g><!--link b8 to b9--><g id="link_b8_b9"><path d="M306,400.5535 C306,429.7979 306,484.1189 306,516.1057 " fill="none" id="b8-to-b9" style="stroke:#181818;stroke-width:1.0;"/><polygon fill="#181818" points="306,521.4237,310,512.4237,306,516.4237,302,512.4237,306,521.4237" style="stroke:#181818;stroke-width:1.0;"/></g><!--link b1 to b10--><g id="link_b1_b10"><path d="M261.8081,84.7248 C276.0022,100.8545 295.9139,123.4813 310.9059,140.5177 " fill="none" id="b1-to-b10" style="stroke:#181818;stroke-width:1.0;"/><polygon fill="#181818" points="314.2184,144.2819,311.2758,134.8829,310.9153,140.5283,305.27,140.1678,314.2184,144.2819" style="stroke:#181818;stroke-width:1.0;"/></g><!--link b1 to b11--><g id="link_b1_b11"><path d="M269.2103,76.5506 C307.1585,94.7077 378.9483,129.0569 420.6886,149.0283 " fill="none" id="b1-to-b11" style="stroke:#181818;stroke-width:1.0;"/><polygon fill="#181818" points="425.377,151.2716,418.9848,143.7789,420.8667,149.1136,415.532,150.9954,425.377,151.2716" style="stroke:#181818;stroke-width:1.0;"/></g><!--link b11 to b12--><g id="link_b11_b12"><path d="M459.1297,184.5492 C464.5136,202.1691 472.3747,227.8963 478.2044,246.9756 " fill="none" id="b11-to-b12" style="stroke:#181818;stroke-width:1.0;"/><polygon fill="#181818" points="479.7911,252.1684,480.9864,242.3923,478.3299,247.3866,473.3356,244.7302,479.7911,252.1684" style="stroke:#181818;stroke-width:1.0;"/></g><!--SRC=[TP3FIW9H58VtvoaEhXMyu_zDKAOmLBfeNc2ckUAGpfNcGhIBY30AqxAYG7GHGOieAKACw5t2EsDlKJCmUf7Q_NxVlNoSSxZ5QnHhZ6thLQgRaz6OrXpgNhz5l_UFtPC7yN7kZU-zRjzjjhtRm-dJe_jowGuw05NBf4Zh3Rw79dMsTgm6jvWD3jSvHOEWxc14BKP2e0J0gin08W3vScbLrTHoQSQJ0LzPB-VN8XZ2rA8klQZB_AFBIhgGvGAsgIrhXOr2IPjn4WyU_0lC6Vb3G9H50nWaPh9TExPaA59EI3a9HZBCAJ1IOKvBEIFbB1ZPM5XoaeZ4vK9-oxmf03RpHsISipgoYhyLVFLEmTyA9wEMkBiImmDKY-YzNuXsCmhUu5NqpYRZ8mp-YEVXzBCZMdtHl05gc-WBVm00]--></g></svg>