<?xml version="1.0" encoding="us-ascii" standalone="no"?><svg xmlns="http://www.w3.org/2000/svg" xmlns:xlink="http://www.w3.org/1999/xlink" contentStyleType="text/css" height="606px" preserveAspectRatio="none" style="width:533px;height:606px;background:#FFFFFF;" version="1.1" viewBox="0 0 533 606" width="533px" zoomAndPan="magnify"><defs/><g><text fill="#000000" font-family="sans-serif" font-size="14" font-weight="bold" lengthAdjust="spacing" textLength="303" x="108.25" y="23.5352">lookahead&#20026;else&#26102;,&#36873;&#25321;&#31227;&#20837;else&#29983;&#25104;&#30340;&#35821;&#27861;&#26641;</text><rect fill="#F1F1F1" height="40" rx="12.5" ry="12.5" style="stroke:#181818;stroke-width:0.5;" width="50" x="112" y="44.4883"/><text fill="#000000" font-family="sans-serif" font-size="14" lengthAdjust="spacing" textLength="12" x="131" y="69.7793">IF</text><rect fill="#F1F1F1" height="40" rx="12.5" ry="12.5" style="stroke:#181818;stroke-width:0.5;" width="50" x="7" y="144.4883"/><text fill="#000000" font-family="sans-serif" font-size="14" lengthAdjust="spacing" textLength="9" x="27.5" y="169.7793">if</text><rect fill="#F1F1F1" height="40" rx="12.5" ry="12.5" style="stroke:#181818;stroke-width:0.5;" width="89" x="92.5" y="144.4883"/><text fill="#000000" font-family="sans-serif" font-size="14" lengthAdjust="spacing" textLength="79" x="97.5" y="169.7793">CONDITION</text><rect fill="#F1F1F1" height="40" rx="12.5" ry="12.5" style="stroke:#181818;stroke-width:0.5;" width="55" x="216.5" y="144.4883"/><text fill="#000000" font-family="sans-serif" font-size="14" lengthAdjust="spacing" textLength="45" x="221.5" y="169.7793">BLOCK</text><rect fill="#F1F1F1" height="40" rx="12.5" ry="12.5" style="stroke:#181818;stroke-width:0.5;" width="50" x="219" y="244.4883"/><text fill="#000000" font-family="sans-serif" font-size="14" lengthAdjust="spacing" textLength="12" x="238" y="269.7793">IF</text><rect fill="#F1F1F1" height="40" rx="12.5" ry="12.5" style="stroke:#181818;stroke-width:0.5;" width="50" x="7" y="344.4883"/><text fill="#000000" font-family="sans-serif" font-size="14" lengthAdjust="spacing" textLength="9" x="27.5" y="369.7793">if</text><rect fill="#F1F1F1" height="40" rx="12.5" ry="12.5" style="stroke:#181818;stroke-width:0.5;" width="89" x="92.5" y="344.4883"/><text fill="#000000" font-family="sans-serif" font-size="14" lengthAdjust="spacing" textLength="79" x="97.5" y="369.7793">CONDITION</text><rect fill="#F1F1F1" height="40" rx="12.5" ry="12.5" style="stroke:#181818;stroke-width:0.5;" width="55" x="216.5" y="344.4883"/><text fill="#000000" font-family="sans-serif" font-size="14" lengthAdjust="spacing" textLength="45" x="221.5" y="369.7793">BLOCK</text><rect fill="#F1F1F1" height="40" rx="12.5" ry="12.5" style="stroke:#181818;stroke-width:0.5;" width="93" x="165.5" y="560.4883"/><text fill="#000000" font-family="sans-serif" font-size="14" lengthAdjust="spacing" textLength="83" x="170.5" y="585.7793">STATEMENT</text><rect fill="#F1F1F1" height="40" rx="12.5" ry="12.5" style="stroke:#181818;stroke-width:0.5;" width="50" x="307" y="344.4883"/><text fill="#000000" font-family="sans-serif" font-size="14" lengthAdjust="spacing" textLength="27" x="318.5" y="369.7793">else</text><rect fill="#F1F1F1" height="40" rx="12.5" ry="12.5" style="stroke:#181818;stroke-width:0.5;" width="55" x="423.5" y="344.4883"/><text fill="#000000" font-family="sans-serif" font-size="14" lengthAdjust="spacing" textLength="45" x="428.5" y="369.7793">BLOCK</text><rect fill="#F1F1F1" height="40" rx="12.5" ry="12.5" style="stroke:#181818;stroke-width:0.5;" width="93" x="434.5" y="452.4883"/><text fill="#000000" font-family="sans-serif" font-size="14" lengthAdjust="spacing" textLength="83" x="439.5" y="477.7793">STATEMENT</text><g id="elem_GMN25"><path d="M265,444.4883 L265,500.4199 A0,0 0 0 0 265,500.4199 L399,500.4199 A0,0 0 0 0 399,500.4199 L399,454.4883 L389,444.4883 L336,444.4883 L332,384.5492 L328,444.4883 L265,444.4883 A0,0 0 0 0 265,444.4883 " fill="#FEFFDD" style="stroke:#181818;stroke-width:0.5;"/><path d="M389,444.4883 L389,454.4883 L399,454.4883 L389,444.4883 " fill="#FEFFDD" style="stroke:#181818;stroke-width:0.5;"/><text fill="#000000" font-family="sans-serif" font-size="13" lengthAdjust="spacing" textLength="17" x="271" y="462.0566">&#9989;</text><text fill="#000000" font-family="sans-serif" font-size="13" lengthAdjust="spacing" textLength="113" x="271" y="477.3672">else &#19982;&#20869;&#23618; IF &#32467;&#21512;</text><text fill="#000000" font-family="sans-serif" font-size="13" lengthAdjust="spacing" textLength="52" x="271" y="492.6777">&#31526;&#21512;&#39044;&#26399;</text></g><!--link 1 to 2--><g id="link_1_2"><path d="M115.7517,84.7248 C98.8155,100.8545 75.0573,123.4813 57.1692,140.5177 " fill="none" id="1-to-2" style="stroke:#181818;stroke-width:1.0;"/><polygon fill="#181818" points="53.2167,144.2819,62.4926,140.9716,56.8374,140.8336,56.9753,135.1784,53.2167,144.2819" style="stroke:#181818;stroke-width:1.0;"/></g><!--link 1 to 3--><g id="link_1_3"><path d="M137,84.7248 C137,100.4478 137,122.3446 137,139.2187 " fill="none" id="1-to-3" style="stroke:#181818;stroke-width:1.0;"/><polygon fill="#181818" points="137,144.2819,141,135.2819,137,139.2819,133,135.2819,137,144.2819" style="stroke:#181818;stroke-width:1.0;"/></g><!--link 1 to 4--><g id="link_1_4"><path d="M158.653,84.7248 C175.9118,100.8545 200.1225,123.4813 218.3514,140.5177 " fill="none" id="1-to-4" style="stroke:#181818;stroke-width:1.0;"/><polygon fill="#181818" points="222.3792,144.2819,218.535,135.2142,218.7262,140.8679,213.0726,141.0591,222.3792,144.2819" style="stroke:#181818;stroke-width:1.0;"/></g><!--link 4 to 5--><g id="link_4_5"><path d="M244,184.7248 C244,200.4478 244,222.3446 244,239.2187 " fill="none" id="4-to-5" style="stroke:#181818;stroke-width:1.0;"/><polygon fill="#181818" points="244,244.2819,248,235.2819,244,239.2819,240,235.2819,244,244.2819" style="stroke:#181818;stroke-width:1.0;"/></g><!--link 5 to 6--><g id="link_5_6"><path d="M218.8483,276.3523 C179.5611,294.884 103.7935,330.6235 61.8176,350.4234 " fill="none" id="5-to-6" style="stroke:#181818;stroke-width:1.0;"/><polygon fill="#181818" points="57.119,352.6397,66.9654,352.4177,61.6411,350.5065,63.5523,345.1823,57.119,352.6397" style="stroke:#181818;stroke-width:1.0;"/></g><!--link 5 to 7--><g id="link_5_7"><path d="M222.347,284.7248 C205.0882,300.8545 180.8775,323.4813 162.6486,340.5177 " fill="none" id="5-to-7" style="stroke:#181818;stroke-width:1.0;"/><polygon fill="#181818" points="158.6208,344.2819,167.9274,341.0591,162.2738,340.8679,162.465,335.2142,158.6208,344.2819" style="stroke:#181818;stroke-width:1.0;"/></g><!--link 5 to 8--><g id="link_5_8"><path d="M244,284.7248 C244,300.4478 244,322.3446 244,339.2187 " fill="none" id="5-to-8" style="stroke:#181818;stroke-width:1.0;"/><polygon fill="#181818" points="244,344.2819,248,335.2819,244,339.2819,240,335.2819,244,344.2819" style="stroke:#181818;stroke-width:1.0;"/></g><!--link 8 to 9--><g id="link_8_9"><path d="M240.9895,384.8091 C235.1139,424.4697 222.1343,512.0818 215.727,555.3308 " fill="none" id="8-to-9" style="stroke:#181818;stroke-width:1.0;"/><polygon fill="#181818" points="214.9792,560.3789,220.2551,552.0624,215.7121,555.4329,212.3415,550.8898,214.9792,560.3789" style="stroke:#181818;stroke-width:1.0;"/></g><!--link 5 to 10--><g id="link_5_10"><path d="M261.8081,284.7248 C276.0022,300.8545 295.9139,323.4813 310.9059,340.5177 " fill="none" id="5-to-10" style="stroke:#181818;stroke-width:1.0;"/><polygon fill="#181818" points="314.2184,344.2819,311.2758,334.8829,310.9153,340.5283,305.27,340.1678,314.2184,344.2819" style="stroke:#181818;stroke-width:1.0;"/></g><!--link 5 to 11--><g id="link_5_11"><path d="M269.3823,276.7503 C307.0131,294.9294 377.5825,329.0209 418.8005,348.933 " fill="none" id="5-to-11" style="stroke:#181818;stroke-width:1.0;"/><polygon fill="#181818" points="423.4318,351.1703,417.0678,343.6536,418.9296,348.9953,413.5879,350.8571,423.4318,351.1703" style="stroke:#181818;stroke-width:1.0;"/></g><!--link 11 to 12--><g id="link_11_12"><path d="M456.5725,384.5492 C461.4669,402.1691 468.6133,427.8963 473.9131,446.9756 " fill="none" id="11-to-12" style="stroke:#181818;stroke-width:1.0;"/><polygon fill="#181818" points="475.3556,452.1684,476.8007,442.4261,474.0173,447.3508,469.0926,444.5674,475.3556,452.1684" style="stroke:#181818;stroke-width:1.0;"/></g><!--SRC=[AyaioKbLoCdFpqxCI4rCUR9ZLsfESUgpwTjqNZPqFkjU-NpvxgUjIq5YpwVCVzOnuVcibXVhrpxRFFNPWebSN1cPAQaAgRa59PKAAQd5oKMP1IMP-NbSnIM99QaAXWg9nGfAdcvAKBuHc9-P1kCRW_dE_dukdY6U_dumOHEmi9EFlxEtaW9Kp1JDA3Cqeyon6sM1P1HKo18i51pY6EBgw-eN0XCsD02BW_m95pB4r6reXAwTor0t9RyyJzVE2CuoXhDCk4oWB5CkKoZB3CuoXxCik2nqeKnBkA2X0O9fo6K8CzFGY8ihBn_ebgJyafByN8NyDA3ZkHxDQUK2ELxXoOw-fssjJpSsANYwAJpVFVdfX0wkvskM0QcNYrgUpPdFbPgNeW3I3m00]--></g></svg>