<?xml version="1.0" encoding="us-ascii" standalone="no"?><svg xmlns="http://www.w3.org/2000/svg" xmlns:xlink="http://www.w3.org/1999/xlink" contentStyleType="text/css" height="390px" preserveAspectRatio="none" style="width:461px;height:390px;background:#FFFFFF;" version="1.1" viewBox="0 0 461 390" width="461px" zoomAndPan="magnify"><defs/><g><text fill="#000000" font-family="sans-serif" font-size="14" font-weight="bold" lengthAdjust="spacing" textLength="325" x="61" y="23.5352">&#21491;&#32467;&#21512;&#30340;&#20943;&#27861;&#34920;&#36798;&#24335;,&#23545;&#36755;&#20837; a-b-c-d &#29983;&#25104;&#30340;&#35821;&#27861;&#26641;</text><rect fill="#F1F1F1" height="40" rx="12.5" ry="12.5" style="stroke:#181818;stroke-width:0.5;" width="108" x="63" y="44.4883"/><text fill="#000000" font-family="sans-serif" font-size="14" lengthAdjust="spacing" textLength="98" x="68" y="69.7793">&#31532;&#19977;&#27425;&#20943;&#27861;&#36816;&#31639;</text><rect fill="#F1F1F1" height="40" rx="12.5" ry="12.5" style="stroke:#181818;stroke-width:0.5;" width="50" x="7" y="144.4883"/><text fill="#000000" font-family="sans-serif" font-size="14" lengthAdjust="spacing" textLength="8" x="28" y="169.7793">a</text><rect fill="#F1F1F1" height="40" rx="12.5" ry="12.5" style="stroke:#181818;stroke-width:0.5;" width="50" x="92" y="144.4883"/><text fill="#000000" font-family="sans-serif" font-size="14" lengthAdjust="spacing" textLength="8" x="113" y="169.7793">-</text><rect fill="#F1F1F1" height="40" rx="12.5" ry="12.5" style="stroke:#181818;stroke-width:0.5;" width="108" x="177" y="144.4883"/><text fill="#000000" font-family="sans-serif" font-size="14" lengthAdjust="spacing" textLength="98" x="182" y="169.7793">&#31532;&#20108;&#27425;&#20943;&#27861;&#36816;&#31639;</text><rect fill="#F1F1F1" height="40" rx="12.5" ry="12.5" style="stroke:#181818;stroke-width:0.5;" width="50" x="121" y="244.4883"/><text fill="#000000" font-family="sans-serif" font-size="14" lengthAdjust="spacing" textLength="9" x="141.5" y="269.7793">b</text><rect fill="#F1F1F1" height="40" rx="12.5" ry="12.5" style="stroke:#181818;stroke-width:0.5;" width="50" x="206" y="244.4883"/><text fill="#000000" font-family="sans-serif" font-size="14" lengthAdjust="spacing" textLength="8" x="227" y="269.7793">-</text><rect fill="#F1F1F1" height="40" rx="12.5" ry="12.5" style="stroke:#181818;stroke-width:0.5;" width="108" x="291" y="244.4883"/><text fill="#000000" font-family="sans-serif" font-size="14" lengthAdjust="spacing" textLength="98" x="296" y="269.7793">&#31532;&#19968;&#27425;&#20943;&#27861;&#36816;&#31639;</text><rect fill="#F1F1F1" height="40" rx="12.5" ry="12.5" style="stroke:#181818;stroke-width:0.5;" width="50" x="235" y="344.4883"/><text fill="#000000" font-family="sans-serif" font-size="14" lengthAdjust="spacing" textLength="7" x="256.5" y="369.7793">c</text><rect fill="#F1F1F1" height="40" rx="12.5" ry="12.5" style="stroke:#181818;stroke-width:0.5;" width="50" x="320" y="344.4883"/><text fill="#000000" font-family="sans-serif" font-size="14" lengthAdjust="spacing" textLength="8" x="341" y="369.7793">-</text><rect fill="#F1F1F1" height="40" rx="12.5" ry="12.5" style="stroke:#181818;stroke-width:0.5;" width="50" x="405" y="344.4883"/><text fill="#000000" font-family="sans-serif" font-size="14" lengthAdjust="spacing" textLength="9" x="425.5" y="369.7793">d</text><!--link 0 to 3--><g id="link_0_3"><path d="M99.799,84.7248 C86.204,100.7189 67.1788,123.1015 52.7411,140.087 " fill="none" id="0-to-3" style="stroke:#181818;stroke-width:1.0;"/><polygon fill="#181818" points="49.1754,144.2819,58.052,140.0151,52.4137,140.4722,51.9565,134.8338,49.1754,144.2819" style="stroke:#181818;stroke-width:1.0;"/></g><!--link 0 to 4--><g id="link_0_4"><path d="M117,84.7248 C117,100.4478 117,122.3446 117,139.2187 " fill="none" id="0-to-4" style="stroke:#181818;stroke-width:1.0;"/><polygon fill="#181818" points="117,144.2819,121,135.2819,117,139.2819,113,135.2819,117,144.2819" style="stroke:#181818;stroke-width:1.0;"/></g><!--link 0 to 1--><g id="link_0_1"><path d="M140.0696,84.7248 C158.6119,100.99 184.6861,123.8621 204.1617,140.946 " fill="none" id="0-to-1" style="stroke:#181818;stroke-width:1.0;"/><polygon fill="#181818" points="207.9647,144.2819,203.8365,135.34,204.2059,140.9847,198.5611,141.3541,207.9647,144.2819" style="stroke:#181818;stroke-width:1.0;"/></g><!--link 1 to 5--><g id="link_1_5"><path d="M213.799,184.7248 C200.204,200.7189 181.1788,223.1015 166.7411,240.087 " fill="none" id="1-to-5" style="stroke:#181818;stroke-width:1.0;"/><polygon fill="#181818" points="163.1754,244.2819,172.052,240.0151,166.4137,240.4722,165.9565,234.8338,163.1754,244.2819" style="stroke:#181818;stroke-width:1.0;"/></g><!--link 1 to 6--><g id="link_1_6"><path d="M231,184.7248 C231,200.4478 231,222.3446 231,239.2187 " fill="none" id="1-to-6" style="stroke:#181818;stroke-width:1.0;"/><polygon fill="#181818" points="231,244.2819,235,235.2819,231,239.2819,227,235.2819,231,244.2819" style="stroke:#181818;stroke-width:1.0;"/></g><!--link 1 to 2--><g id="link_1_2"><path d="M254.0696,184.7248 C272.6119,200.99 298.6861,223.8621 318.1617,240.946 " fill="none" id="1-to-2" style="stroke:#181818;stroke-width:1.0;"/><polygon fill="#181818" points="321.9647,244.2819,317.8365,235.34,318.2059,240.9847,312.5611,241.3541,321.9647,244.2819" style="stroke:#181818;stroke-width:1.0;"/></g><!--link 2 to 7--><g id="link_2_7"><path d="M327.799,284.7248 C314.204,300.7189 295.1788,323.1015 280.7411,340.087 " fill="none" id="2-to-7" style="stroke:#181818;stroke-width:1.0;"/><polygon fill="#181818" points="277.1754,344.2819,286.052,340.0151,280.4137,340.4722,279.9565,334.8338,277.1754,344.2819" style="stroke:#181818;stroke-width:1.0;"/></g><!--link 2 to 8--><g id="link_2_8"><path d="M345,284.7248 C345,300.4478 345,322.3446 345,339.2187 " fill="none" id="2-to-8" style="stroke:#181818;stroke-width:1.0;"/><polygon fill="#181818" points="345,344.2819,349,335.2819,345,339.2819,341,335.2819,345,344.2819" style="stroke:#181818;stroke-width:1.0;"/></g><!--link 2 to 9--><g id="link_2_9"><path d="M362.201,284.7248 C375.796,300.7189 394.8212,323.1015 409.2589,340.087 " fill="none" id="2-to-9" style="stroke:#181818;stroke-width:1.0;"/><polygon fill="#181818" points="412.8246,344.2819,410.0435,334.8338,409.5863,340.4722,403.948,340.0151,412.8246,344.2819" style="stroke:#181818;stroke-width:1.0;"/></g><!--SRC=[oyXCILL8pIqegLH8IIrEBieiACdCp-CgoIp9ILLush_v-Ux9JoTqF9_LyhIz_zdcgIyMhdYnRz_JFVqwJzVlVB5lyjFMfGg9kacwoRef2i-dp7_MCG6ezCNwjK2bpnPCv2ekIIn9LJ1GI2nMK7g-PisJ7PtFrYo4chH_mlDrqvMWIep1IX9XN1CmLnV6DOGRiAi7Xm6cO2L9CAuPgW5621Squ3307Ama6SQrG3N04inDKUBYCb3GJSalpzErKp16OfiWiGsv3E5iKoIs6HBRYCi8pZP7ObiWiIq1]--></g></svg>