<?xml version="1.0" encoding="us-ascii" standalone="no"?><svg xmlns="http://www.w3.org/2000/svg" xmlns:xlink="http://www.w3.org/1999/xlink" contentStyleType="text/css" height="390px" preserveAspectRatio="none" style="width:461px;height:390px;background:#FFFFFF;" version="1.1" viewBox="0 0 461 390" width="461px" zoomAndPan="magnify"><defs/><g><text fill="#000000" font-family="sans-serif" font-size="14" font-weight="bold" lengthAdjust="spacing" textLength="325" x="61" y="23.5352">&#24038;&#32467;&#21512;&#30340;&#20943;&#27861;&#34920;&#36798;&#24335;,&#23545;&#36755;&#20837; a-b-c-d &#29983;&#25104;&#30340;&#35821;&#27861;&#26641;</text><rect fill="#F1F1F1" height="40" rx="12.5" ry="12.5" style="stroke:#181818;stroke-width:0.5;" width="108" x="291" y="44.4883"/><text fill="#000000" font-family="sans-serif" font-size="14" lengthAdjust="spacing" textLength="98" x="296" y="69.7793">&#31532;&#19977;&#27425;&#20943;&#27861;&#36816;&#31639;</text><rect fill="#F1F1F1" height="40" rx="12.5" ry="12.5" style="stroke:#181818;stroke-width:0.5;" width="108" x="177" y="144.4883"/><text fill="#000000" font-family="sans-serif" font-size="14" lengthAdjust="spacing" textLength="98" x="182" y="169.7793">&#31532;&#20108;&#27425;&#20943;&#27861;&#36816;&#31639;</text><rect fill="#F1F1F1" height="40" rx="12.5" ry="12.5" style="stroke:#181818;stroke-width:0.5;" width="108" x="63" y="244.4883"/><text fill="#000000" font-family="sans-serif" font-size="14" lengthAdjust="spacing" textLength="98" x="68" y="269.7793">&#31532;&#19968;&#27425;&#20943;&#27861;&#36816;&#31639;</text><rect fill="#F1F1F1" height="40" rx="12.5" ry="12.5" style="stroke:#181818;stroke-width:0.5;" width="50" x="7" y="344.4883"/><text fill="#000000" font-family="sans-serif" font-size="14" lengthAdjust="spacing" textLength="8" x="28" y="369.7793">a</text><rect fill="#F1F1F1" height="40" rx="12.5" ry="12.5" style="stroke:#181818;stroke-width:0.5;" width="50" x="92" y="344.4883"/><text fill="#000000" font-family="sans-serif" font-size="14" lengthAdjust="spacing" textLength="8" x="113" y="369.7793">-</text><rect fill="#F1F1F1" height="40" rx="12.5" ry="12.5" style="stroke:#181818;stroke-width:0.5;" width="50" x="177" y="344.4883"/><text fill="#000000" font-family="sans-serif" font-size="14" lengthAdjust="spacing" textLength="9" x="197.5" y="369.7793">b</text><rect fill="#F1F1F1" height="40" rx="12.5" ry="12.5" style="stroke:#181818;stroke-width:0.5;" width="50" x="206" y="244.4883"/><text fill="#000000" font-family="sans-serif" font-size="14" lengthAdjust="spacing" textLength="8" x="227" y="269.7793">-</text><rect fill="#F1F1F1" height="40" rx="12.5" ry="12.5" style="stroke:#181818;stroke-width:0.5;" width="50" x="291" y="244.4883"/><text fill="#000000" font-family="sans-serif" font-size="14" lengthAdjust="spacing" textLength="7" x="312.5" y="269.7793">c</text><rect fill="#F1F1F1" height="40" rx="12.5" ry="12.5" style="stroke:#181818;stroke-width:0.5;" width="50" x="320" y="144.4883"/><text fill="#000000" font-family="sans-serif" font-size="14" lengthAdjust="spacing" textLength="8" x="341" y="169.7793">-</text><rect fill="#F1F1F1" height="40" rx="12.5" ry="12.5" style="stroke:#181818;stroke-width:0.5;" width="50" x="405" y="144.4883"/><text fill="#000000" font-family="sans-serif" font-size="14" lengthAdjust="spacing" textLength="9" x="425.5" y="169.7793">d</text><!--link 1 to 2--><g id="link_1_2"><path d="M207.9304,184.7248 C189.3881,200.99 163.3139,223.8621 143.8383,240.946 " fill="none" id="1-to-2" style="stroke:#181818;stroke-width:1.0;"/><polygon fill="#181818" points="140.0353,244.2819,149.4389,241.3541,143.7941,240.9847,144.1635,235.34,140.0353,244.2819" style="stroke:#181818;stroke-width:1.0;"/></g><!--link 2 to 3--><g id="link_2_3"><path d="M99.799,284.7248 C86.204,300.7189 67.1788,323.1015 52.7411,340.087 " fill="none" id="2-to-3" style="stroke:#181818;stroke-width:1.0;"/><polygon fill="#181818" points="49.1754,344.2819,58.052,340.0151,52.4137,340.4722,51.9565,334.8338,49.1754,344.2819" style="stroke:#181818;stroke-width:1.0;"/></g><!--link 2 to 4--><g id="link_2_4"><path d="M117,284.7248 C117,300.4478 117,322.3446 117,339.2187 " fill="none" id="2-to-4" style="stroke:#181818;stroke-width:1.0;"/><polygon fill="#181818" points="117,344.2819,121,335.2819,117,339.2819,113,335.2819,117,344.2819" style="stroke:#181818;stroke-width:1.0;"/></g><!--link 2 to 5--><g id="link_2_5"><path d="M134.201,284.7248 C147.796,300.7189 166.8212,323.1015 181.2589,340.087 " fill="none" id="2-to-5" style="stroke:#181818;stroke-width:1.0;"/><polygon fill="#181818" points="184.8246,344.2819,182.0435,334.8338,181.5863,340.4722,175.948,340.0151,184.8246,344.2819" style="stroke:#181818;stroke-width:1.0;"/></g><!--link 1 to 6--><g id="link_1_6"><path d="M231,184.7248 C231,200.4478 231,222.3446 231,239.2187 " fill="none" id="1-to-6" style="stroke:#181818;stroke-width:1.0;"/><polygon fill="#181818" points="231,244.2819,235,235.2819,231,239.2819,227,235.2819,231,244.2819" style="stroke:#181818;stroke-width:1.0;"/></g><!--link 1 to 7--><g id="link_1_7"><path d="M248.201,184.7248 C261.796,200.7189 280.8212,223.1015 295.2589,240.087 " fill="none" id="1-to-7" style="stroke:#181818;stroke-width:1.0;"/><polygon fill="#181818" points="298.8246,244.2819,296.0435,234.8338,295.5863,240.4722,289.948,240.0151,298.8246,244.2819" style="stroke:#181818;stroke-width:1.0;"/></g><!--link 0 to 1--><g id="link_0_1"><path d="M321.9304,84.7248 C303.3881,100.99 277.3139,123.8621 257.8383,140.946 " fill="none" id="0-to-1" style="stroke:#181818;stroke-width:1.0;"/><polygon fill="#181818" points="254.0353,144.2819,263.4389,141.3541,257.7941,140.9847,258.1635,135.34,254.0353,144.2819" style="stroke:#181818;stroke-width:1.0;"/></g><!--link 0 to 8--><g id="link_0_8"><path d="M345,84.7248 C345,100.4478 345,122.3446 345,139.2187 " fill="none" id="0-to-8" style="stroke:#181818;stroke-width:1.0;"/><polygon fill="#181818" points="345,144.2819,349,135.2819,345,139.2819,341,135.2819,345,144.2819" style="stroke:#181818;stroke-width:1.0;"/></g><!--link 0 to 9--><g id="link_0_9"><path d="M362.201,84.7248 C375.796,100.7189 394.8212,123.1015 409.2589,140.087 " fill="none" id="0-to-9" style="stroke:#181818;stroke-width:1.0;"/><polygon fill="#181818" points="412.8246,144.2819,410.0435,134.8338,409.5863,140.4722,403.948,140.0151,412.8246,144.2819" style="stroke:#181818;stroke-width:1.0;"/></g><!--SRC=[oyXCILL8pIqegLH8IIrEBieiACdCp-CgoIp9ILLukdtPyzsJdqxeU3whvMbx_xFDKryiNF5YtxwdU_frdgxV-MBVvAUjInKITPDqatLJ59vFcV-iOm9GwOlrQu5AdosOo5LSabYIgc2Wa5YieFHypPedEpgVhLa8DMd_XEVhfYj1bHZ2bUpgmQ74265A0mubnc0bYJ2k2PYh2-EQWhb9CAuPggmvc9iCurgWobg2kIbAN5o62hef-ULvkdOAHbn6SBOn4ji4YMsAfDuCYMtEPG1d6oAnBP3ObW00]--></g></svg>