<?xml version="1.0" encoding="us-ascii" standalone="no"?><svg xmlns="http://www.w3.org/2000/svg" xmlns:xlink="http://www.w3.org/1999/xlink" contentStyleType="text/css" height="286px" preserveAspectRatio="none" style="width:565px;height:286px;background:#FFFFFF;" version="1.1" viewBox="0 0 565 286" width="565px" zoomAndPan="magnify"><defs/><g><rect fill="#ADD8E6" height="274.5977" style="stroke:#181818;stroke-width:0.5;" width="401" x="158" y="6"/><text fill="#000000" font-family="sans-serif" font-size="13" font-weight="bold" lengthAdjust="spacing" textLength="54" x="331.5" y="18.5684">Pipeline</text><line style="stroke:#181818;stroke-width:0.5;stroke-dasharray:5.0,5.0;" x1="119" x2="119" y1="56.7988" y2="246.1094"/><line style="stroke:#181818;stroke-width:0.5;stroke-dasharray:5.0,5.0;" x1="200" x2="200" y1="56.7988" y2="246.1094"/><line style="stroke:#181818;stroke-width:0.5;stroke-dasharray:5.0,5.0;" x1="287" x2="287" y1="56.7988" y2="246.1094"/><line style="stroke:#181818;stroke-width:0.5;stroke-dasharray:5.0,5.0;" x1="349" x2="349" y1="56.7988" y2="246.1094"/><line style="stroke:#181818;stroke-width:0.5;stroke-dasharray:5.0,5.0;" x1="419" x2="419" y1="56.7988" y2="246.1094"/><line style="stroke:#181818;stroke-width:0.5;stroke-dasharray:5.0,5.0;" x1="516" x2="516" y1="56.7988" y2="246.1094"/><rect fill="#E2E2F0" height="30.4883" rx="2.5" ry="2.5" style="stroke:#181818;stroke-width:0.5;" width="66" x="86" y="25.3105"/><text fill="#000000" font-family="sans-serif" font-size="14" lengthAdjust="spacing" textLength="52" x="93" y="45.8457">Reactor</text><rect fill="#E2E2F0" height="30.4883" rx="2.5" ry="2.5" style="stroke:#181818;stroke-width:0.5;" width="66" x="86" y="245.1094"/><text fill="#000000" font-family="sans-serif" font-size="14" lengthAdjust="spacing" textLength="52" x="93" y="265.6445">Reactor</text><rect fill="#E2E2F0" height="30.4883" rx="2.5" ry="2.5" style="stroke:#181818;stroke-width:0.5;" width="77" x="162" y="25.3105"/><text fill="#000000" font-family="sans-serif" font-size="14" lengthAdjust="spacing" textLength="63" x="169" y="45.8457">Handler1</text><rect fill="#E2E2F0" height="30.4883" rx="2.5" ry="2.5" style="stroke:#181818;stroke-width:0.5;" width="77" x="162" y="245.1094"/><text fill="#000000" font-family="sans-serif" font-size="14" lengthAdjust="spacing" textLength="63" x="169" y="265.6445">Handler1</text><rect fill="#E2E2F0" height="30.4883" rx="2.5" ry="2.5" style="stroke:#181818;stroke-width:0.5;" width="77" x="249" y="25.3105"/><text fill="#000000" font-family="sans-serif" font-size="14" lengthAdjust="spacing" textLength="63" x="256" y="45.8457">Handler2</text><rect fill="#E2E2F0" height="30.4883" rx="2.5" ry="2.5" style="stroke:#181818;stroke-width:0.5;" width="77" x="249" y="245.1094"/><text fill="#000000" font-family="sans-serif" font-size="14" lengthAdjust="spacing" textLength="63" x="256" y="265.6445">Handler2</text><rect fill="#E2E2F0" height="30.4883" rx="2.5" ry="2.5" style="stroke:#181818;stroke-width:0.5;" width="26" x="336" y="25.3105"/><text fill="#000000" font-family="sans-serif" font-size="14" lengthAdjust="spacing" textLength="12" x="343" y="45.8457">...</text><rect fill="#E2E2F0" height="30.4883" rx="2.5" ry="2.5" style="stroke:#181818;stroke-width:0.5;" width="26" x="336" y="245.1094"/><text fill="#000000" font-family="sans-serif" font-size="14" lengthAdjust="spacing" textLength="12" x="343" y="265.6445">...</text><rect fill="#E2E2F0" height="30.4883" rx="2.5" ry="2.5" style="stroke:#181818;stroke-width:0.5;" width="95" x="372" y="25.3105"/><text fill="#000000" font-family="sans-serif" font-size="14" lengthAdjust="spacing" textLength="81" x="379" y="45.8457">HandlerN-1</text><rect fill="#E2E2F0" height="30.4883" rx="2.5" ry="2.5" style="stroke:#181818;stroke-width:0.5;" width="95" x="372" y="245.1094"/><text fill="#000000" font-family="sans-serif" font-size="14" lengthAdjust="spacing" textLength="81" x="379" y="265.6445">HandlerN-1</text><rect fill="#E2E2F0" height="30.4883" rx="2.5" ry="2.5" style="stroke:#181818;stroke-width:0.5;" width="78" x="477" y="25.3105"/><text fill="#000000" font-family="sans-serif" font-size="14" lengthAdjust="spacing" textLength="64" x="484" y="45.8457">HandlerN</text><rect fill="#E2E2F0" height="30.4883" rx="2.5" ry="2.5" style="stroke:#181818;stroke-width:0.5;" width="78" x="477" y="245.1094"/><text fill="#000000" font-family="sans-serif" font-size="14" lengthAdjust="spacing" textLength="64" x="484" y="265.6445">HandlerN</text><polygon fill="#181818" points="107,84.1094,117,88.1094,107,92.1094,111,88.1094" style="stroke:#181818;stroke-width:1.0;"/><line style="stroke:#181818;stroke-width:1.0;stroke-dasharray:2.0,2.0;" x1="0" x2="113" y1="88.1094" y2="88.1094"/><text fill="#000000" font-family="sans-serif" font-size="13" lengthAdjust="spacing" textLength="95" x="7" y="83.3672">event triggered</text><polygon fill="#181818" points="188.5,98.1094,198.5,102.1094,188.5,106.1094,192.5,102.1094" style="stroke:#181818;stroke-width:1.0;"/><line style="stroke:#181818;stroke-width:1.0;stroke-dasharray:2.0,2.0;" x1="119" x2="194.5" y1="102.1094" y2="102.1094"/><polygon fill="#181818" points="275.5,112.1094,285.5,116.1094,275.5,120.1094,279.5,116.1094" style="stroke:#181818;stroke-width:1.0;"/><line style="stroke:#181818;stroke-width:1.0;stroke-dasharray:2.0,2.0;" x1="200.5" x2="281.5" y1="116.1094" y2="116.1094"/><polygon fill="#181818" points="337,126.1094,347,130.1094,337,134.1094,341,130.1094" style="stroke:#181818;stroke-width:1.0;"/><line style="stroke:#181818;stroke-width:1.0;stroke-dasharray:2.0,2.0;" x1="287.5" x2="343" y1="130.1094" y2="130.1094"/><polygon fill="#181818" points="407.5,140.1094,417.5,144.1094,407.5,148.1094,411.5,144.1094" style="stroke:#181818;stroke-width:1.0;"/><line style="stroke:#181818;stroke-width:1.0;stroke-dasharray:2.0,2.0;" x1="349" x2="413.5" y1="144.1094" y2="144.1094"/><polygon fill="#181818" points="504,154.1094,514,158.1094,504,162.1094,508,158.1094" style="stroke:#181818;stroke-width:1.0;"/><line style="stroke:#181818;stroke-width:1.0;stroke-dasharray:2.0,2.0;" x1="419.5" x2="510" y1="158.1094" y2="158.1094"/><polygon fill="#181818" points="430.5,168.1094,420.5,172.1094,430.5,176.1094,426.5,172.1094" style="stroke:#181818;stroke-width:1.0;"/><line style="stroke:#181818;stroke-width:1.0;stroke-dasharray:2.0,2.0;" x1="424.5" x2="515" y1="172.1094" y2="172.1094"/><polygon fill="#181818" points="360,182.1094,350,186.1094,360,190.1094,356,186.1094" style="stroke:#181818;stroke-width:1.0;"/><line style="stroke:#181818;stroke-width:1.0;stroke-dasharray:2.0,2.0;" x1="354" x2="418.5" y1="186.1094" y2="186.1094"/><polygon fill="#181818" points="298.5,196.1094,288.5,200.1094,298.5,204.1094,294.5,200.1094" style="stroke:#181818;stroke-width:1.0;"/><line style="stroke:#181818;stroke-width:1.0;stroke-dasharray:2.0,2.0;" x1="292.5" x2="348" y1="200.1094" y2="200.1094"/><polygon fill="#181818" points="211.5,210.1094,201.5,214.1094,211.5,218.1094,207.5,214.1094" style="stroke:#181818;stroke-width:1.0;"/><line style="stroke:#181818;stroke-width:1.0;stroke-dasharray:2.0,2.0;" x1="205.5" x2="286.5" y1="214.1094" y2="214.1094"/><polygon fill="#181818" points="130,224.1094,120,228.1094,130,232.1094,126,228.1094" style="stroke:#181818;stroke-width:1.0;"/><line style="stroke:#181818;stroke-width:1.0;stroke-dasharray:2.0,2.0;" x1="124" x2="199.5" y1="228.1094" y2="228.1094"/><!--SRC=[NOuz2y8m48Rt-nL7d5FoqImT79mSHCJLARP73PGqn2Z-V8yCqhZSSxpFlI79vnB6a7migD0_KLp9ZsND0k2-Vb1SGg8bH1AuEuNvKGxBYo1jMhgsZZvE2sKj6cUsphJELjTrNHltsyfP_Zte6Yk0ueJyJO2Rb7jK0zAR-ApaCC-KQGB5kHuGDDCm3TCoBRE7dgS3zzjjpKszqhMZu0i0]--></g></svg>